<svg width="744" height="187" viewBox="0 0 744 187" fill="none" xmlns="http://www.w3.org/2000/svg">
<g filter="url(#filter0_d_1654_7)">
<path d="M250.801 72.0001H262.249L249.865 20.5921H236.761L224.377 72.0001H234.025L236.689 60.1921H248.137L250.801 72.0001ZM238.417 52.3441L239.641 47.0161C240.865 41.4721 241.801 36.8641 242.305 31.7521H242.521C243.025 36.8641 243.961 41.2561 245.185 47.0881L246.337 52.3441H238.417ZM291.703 45.6481C296.527 43.9201 299.551 39.6001 299.551 33.9841C299.551 25.4881 292.495 20.5921 281.191 20.5921H266.863V72.0001H282.055C293.215 72.0001 300.415 66.6001 300.415 57.9601C300.415 51.8401 297.031 47.2321 291.703 45.6481ZM281.119 29.3041C285.583 29.3041 288.391 31.3921 288.391 35.4241C288.391 39.3841 285.583 41.4721 281.119 41.4721H278.023V29.3041H281.119ZM281.983 63.2881H278.023V49.8241H281.983C286.375 49.8241 289.255 52.2721 289.255 56.5201C289.255 60.7681 286.375 63.2881 281.983 63.2881ZM322.237 72.8641C333.469 72.8641 340.309 63.6481 340.309 46.2961C340.309 28.9441 333.469 19.7281 322.237 19.7281C311.005 19.7281 304.165 28.9441 304.165 46.2961C304.165 63.6481 311.005 72.8641 322.237 72.8641ZM322.237 63.5761C317.989 63.5761 315.613 58.8241 315.613 46.2961C315.613 33.7681 317.989 29.0161 322.237 29.0161C326.485 29.0161 328.861 33.7681 328.861 46.2961C328.861 58.8241 326.485 63.5761 322.237 63.5761ZM363.961 72.8641C374.329 72.8641 380.737 65.3041 380.737 54.3601V20.5921H371.377V54.6481C371.377 59.9761 369.001 63.5761 364.537 63.5761C360.145 63.5761 357.697 59.9761 357.697 54.6481V20.5921H346.249V54.3601C346.249 65.3041 353.089 72.8641 363.961 72.8641ZM419.467 20.5921H385.771V29.8801H397.003V72.0001H408.163V29.8801H419.467V20.5921ZM462.84 72.8641C473.208 72.8641 479.616 65.3041 479.616 54.3601V20.5921H470.256V54.6481C470.256 59.9761 467.88 63.5761 463.416 63.5761C459.024 63.5761 456.576 59.9761 456.576 54.6481V20.5921H445.128V54.3601C445.128 65.3041 451.968 72.8641 462.84 72.8641ZM496.386 33.9121C496.386 30.6721 498.618 28.4401 502.074 28.4401C506.178 28.4401 508.698 31.5361 508.698 36.6481H518.058C518.058 26.2081 511.794 19.7281 501.642 19.7281C492.138 19.7281 485.946 25.3441 485.946 33.9121C485.946 40.1041 489.258 44.8561 495.81 47.8081L500.922 50.1121C506.538 52.6321 508.338 54.7201 508.338 58.0321C508.338 61.6321 505.818 64.1521 502.074 64.1521C497.898 64.1521 495.378 61.0561 495.162 55.7281H485.514C485.874 66.3841 492.354 72.8641 502.578 72.8641C512.442 72.8641 518.778 66.9601 518.778 57.7441C518.778 50.9041 515.394 46.4401 507.33 42.8401L501.138 40.1041C497.97 38.6641 496.386 36.6481 496.386 33.9121Z" fill="url(#paint0_linear_1654_7)"/>
<path d="M220.001 107H651.001V111H220.001V107Z" fill="#048B50"/>
</g>
<defs>
<filter id="filter0_d_1654_7" x="216.001" y="19.7281" width="439" height="99.2721" filterUnits="userSpaceOnUse" color-interpolation-filters="sRGB">
<feFlood flood-opacity="0" result="BackgroundImageFix"/>
<feColorMatrix in="SourceAlpha" type="matrix" values="0 0 0 0 0 0 0 0 0 0 0 0 0 0 0 0 0 0 127 0" result="hardAlpha"/>
<feOffset dy="4"/>
<feGaussianBlur stdDeviation="2"/>
<feComposite in2="hardAlpha" operator="out"/>
<feColorMatrix type="matrix" values="0 0 0 0 0 0 0 0 0 0 0 0 0 0 0 0 0 0 0.25 0"/>
<feBlend mode="normal" in2="BackgroundImageFix" result="effect1_dropShadow_1654_7"/>
<feBlend mode="normal" in="SourceGraphic" in2="effect1_dropShadow_1654_7" result="shape"/>
</filter>
<linearGradient id="paint0_linear_1654_7" x1="217.001" y1="0.000153677" x2="577.001" y2="82.0002" gradientUnits="userSpaceOnUse">
<stop stop-color="#021F41"/>
<stop offset="0.983957" stop-color="#048B50"/>
</linearGradient>
</defs>
</svg>
