<svg width="1920" height="1988" viewBox="0 0 1920 1988" fill="none" xmlns="http://www.w3.org/2000/svg">
<g clip-path="url(#clip0_1289_6)">
<path d="M82.7906 -65.3906C52.3039 -47.654 37.3627 -8.84329 39.4082 26.6331C41.4538 62.1095 57.6888 94.6676 76.6754 123.835C125.434 198.736 193.389 257.632 251.408 325.073C309.427 392.513 359.404 474.464 359.912 565.861C360.691 708.505 245.994 822.43 149.382 927.754C124.086 955.315 98.6508 985.145 89.5826 1021.58C77.9729 1068.21 96.0704 1117.48 125.303 1153.75C154.536 1190.02 193.896 1215.79 232.054 1241.88C354.931 1325.9 475.911 1423.62 540.322 1560.58C604.734 1697.53 612.722 1942.99 434.266 2134.19" stroke="#021F41" stroke-width="0.71" stroke-miterlimit="10"/>
<path opacity="0.98" d="M443.573 2133.84C540.839 2025.28 575.75 1898.75 575.138 1784.25C574.711 1702.53 556.221 1627.24 528.299 1569.87C502.584 1516.75 468.851 1469.1 430.425 1425.5C415.494 1408.6 399.87 1392.29 383.856 1376.57C345.901 1339.34 305.638 1305.5 264.494 1274.02C252.441 1264.8 240.278 1255.74 228.156 1246.86C202.568 1228.15 176.446 1209.66 153.735 1187.61C144.431 1178.61 135.712 1169.01 127.788 1158.48C114.813 1141.15 104.171 1120.8 97.3305 1099.05C89.8471 1075.22 87.0439 1050.37 92.1215 1026.45C94.1025 1017.23 97.1203 1008.44 100.973 1000.05C111.963 975.947 129.472 954.802 146.866 934.901C164.202 915.05 182.188 894.881 199.885 874.258C244.884 821.817 287.972 766.357 314.197 704.42C331.069 664.793 341.125 622.567 340.461 577.362C340.019 547.841 334.811 519.204 326.167 491.713C307.906 433.588 274.195 380.772 236.965 334.498C199.343 287.838 157.265 245.111 119.222 198.311C101.754 176.8 85.1339 154.5 70.2552 130.602C51.8383 101.045 35.9761 68.1261 33.8526 32.3953C31.729 -3.33554 46.1229 -42.3388 75.6781 -60.7614" stroke="#021F41" stroke-width="0.71" stroke-miterlimit="10"/>
<path opacity="0.95" d="M450.55 2135.88C541.016 2030.24 570.197 1907.06 565.92 1794.17C562.882 1713.83 542.921 1639.14 513.977 1581.56C487.528 1528.43 453.586 1480.4 415.566 1436.01C400.798 1418.81 385.458 1402.18 369.88 1386.11C333.014 1348.05 294.969 1313.59 256.198 1281.74C244.824 1272.39 233.371 1263.23 221.947 1254.27C197.874 1235.38 173.329 1216.74 152.136 1194.78C143.445 1185.81 135.308 1176.23 127.947 1165.68C115.871 1148.32 106.061 1127.83 99.2543 1105.92C91.8003 1081.84 88.1894 1057.24 92.3224 1033.81C93.9021 1024.76 96.5682 1016.19 100.038 1008C109.879 984.532 125.974 963.939 142.025 944.51C158.005 925.162 174.59 905.514 190.931 885.394C232.492 834.282 271.962 780.225 295.595 718.567C310.831 679.141 319.745 636.732 318.7 591.293C317.988 561.622 312.809 532.739 304.512 504.95C286.962 446.273 255.244 393.11 220.211 346.354C184.742 299.229 145.044 256.022 108.651 208.547C91.9721 186.739 75.9533 164.062 61.56 139.888C43.7258 109.91 28.2102 76.6932 26.0532 40.6898C23.8647 4.67311 37.7114 -34.5226 66.2906 -53.613" stroke="#021F41" stroke-width="0.7" stroke-miterlimit="10"/>
<path opacity="0.93" d="M455.37 2140.16C539.082 2037.41 562.518 1917.62 554.545 1806.32C548.884 1727.4 527.335 1653.41 497.499 1595.49C470.201 1542.45 436.179 1493.9 398.551 1448.75C383.964 1431.29 368.844 1414.31 353.716 1397.88C317.971 1358.99 282.144 1323.91 245.682 1291.67C234.988 1282.2 224.264 1272.97 213.55 1263.9C190.961 1244.82 168.07 1226.03 148.317 1204.15C140.253 1195.19 132.685 1185.66 125.919 1175.1C114.773 1157.72 105.762 1137.09 99.0034 1114.97C91.5788 1090.65 87.1916 1066.31 90.3487 1043.36C91.5584 1034.49 93.8414 1026.13 96.8836 1018.17C105.562 995.357 120.27 975.255 134.965 956.328C149.588 937.484 164.818 918.338 179.776 898.784C217.854 849.02 253.626 796.294 274.774 734.925C288.298 695.705 296.178 653.121 294.687 607.421C293.719 577.569 288.57 548.439 280.624 520.428C263.83 461.182 234.073 407.659 201.206 360.406C167.907 312.862 130.554 269.085 95.8419 220.948C79.9345 198.799 64.5349 175.79 50.6089 151.294C33.3756 120.941 18.233 87.3628 15.9665 51.0918C13.7132 14.7893 26.9994 -24.5675 54.6604 -44.3754" stroke="#021F41" stroke-width="0.69" stroke-miterlimit="10"/>
<path opacity="0.9" d="M458.301 2146.56C535.214 2046.72 552.955 1930.39 541.281 1820.6C533.041 1743.07 509.932 1669.72 479.1 1611.54C451.01 1558.53 416.806 1509.53 379.614 1463.61C365.191 1445.85 350.31 1428.56 335.662 1411.78C301.007 1372.05 267.412 1336.32 233.309 1303.73C223.28 1294.17 213.267 1284.84 203.264 1275.66C182.203 1256.37 160.877 1237.46 142.641 1215.66C135.19 1206.74 128.204 1197.23 122.014 1186.62C111.812 1169.19 103.588 1148.45 96.8452 1126.11C89.4499 1101.55 84.2732 1077.51 86.4543 1055.03C87.281 1046.36 89.1809 1038.22 91.8086 1030.45C99.3064 1008.25 112.645 988.684 126.002 970.305C139.27 951.963 153.099 933.34 166.701 914.288C201.295 865.871 233.477 814.485 252.051 753.441C263.939 714.422 270.708 671.667 268.804 625.721C267.566 595.718 262.446 566.342 254.878 538.046C238.828 478.262 211.165 424.324 180.361 376.643C149.305 328.598 114.211 284.365 81.1805 235.566C66.0444 213.074 51.264 189.735 37.8051 164.917C21.1546 134.143 6.37177 100.235 4.05865 63.723C1.77188 27.1479 14.4479 -12.4278 41.1958 -32.8771" stroke="#021F41" stroke-width="0.69" stroke-miterlimit="10"/>
<path opacity="0.88" d="M459.566 2155C529.724 2058.05 541.727 1945.19 526.32 1836.9C515.487 1760.8 490.862 1688.07 459.034 1629.62C430.198 1576.63 395.811 1527.18 358.981 1480.49C344.707 1462.46 330.092 1444.8 315.924 1427.67C282.345 1387.14 251.013 1350.76 219.252 1317.79C209.933 1308.12 200.599 1298.67 191.311 1289.45C171.734 1269.98 152.017 1250.92 135.268 1229.19C128.398 1220.29 122.038 1210.79 116.43 1200.2C107.171 1182.72 99.7206 1161.9 93.0389 1139.33C85.6731 1114.52 79.7514 1090.76 80.9252 1068.75C81.3819 1060.26 82.8988 1052.32 85.112 1044.75C91.4423 1023.13 103.43 1004.14 115.399 986.255C127.298 968.447 139.771 950.326 152.004 931.809C183.128 884.709 211.693 834.725 227.706 773.974C237.914 735.174 243.603 692.263 241.267 646.024C239.76 615.872 234.682 586.218 227.448 557.655C212.154 497.301 186.483 443.016 157.814 394.826C128.942 346.329 96.1661 301.591 64.8296 252.098C50.4648 229.265 36.3036 205.593 23.312 180.454C7.231 149.291 -7.19205 115.054 -9.57005 78.256C-11.9349 41.4265 0.193897 1.65832 26.0103 -19.4771" stroke="#021F41" stroke-width="0.68" stroke-miterlimit="10"/>
<path opacity="0.85" d="M459.343 2165.4C522.734 2071.38 529.073 1961.98 509.902 1855.18C496.508 1780.51 470.335 1708.39 437.513 1649.67C407.93 1596.7 373.347 1546.84 336.922 1499.36C322.812 1481.03 308.467 1463.08 294.748 1445.58C262.29 1404.22 233.19 1367.2 203.738 1333.83C195.099 1324.03 186.462 1314.5 177.884 1305.18C159.822 1285.52 141.67 1266.35 126.451 1244.67C120.195 1235.81 114.416 1226.33 109.403 1215.73C101.075 1198.23 94.4238 1177.27 87.7897 1154.5C80.4846 1129.45 73.7552 1105.94 73.9531 1084.41C74.0267 1076.13 75.1738 1068.37 76.9906 1061.04C82.1717 1040.05 92.7588 1021.58 103.404 1004.21C113.946 986.902 125.05 969.315 135.896 951.288C163.536 905.535 188.497 856.922 201.918 796.451C210.49 757.852 215.068 714.771 212.332 668.254C210.569 637.92 205.521 608.02 198.638 579.235C184.086 518.343 160.422 463.679 133.905 415.025C107.216 366.077 76.7902 320.845 47.0854 270.632C33.5232 247.47 19.9499 223.454 7.41223 198.025C-8.09919 166.473 -22.1493 131.875 -24.5607 94.8042C-26.9904 57.6888 -15.409 17.7282 9.47608 -4.09328" stroke="#021F41" stroke-width="0.68" stroke-miterlimit="10"/>
<path opacity="0.83" d="M457.87 2177.63C514.474 2086.5 515.155 1980.64 492.233 1875.3C476.296 1802.11 448.558 1730.56 414.709 1671.55C384.365 1618.63 349.613 1568.3 313.58 1520.05C299.62 1501.45 285.541 1483.13 272.289 1465.31C240.921 1423.12 214.039 1385.47 186.96 1351.73C178.999 1341.82 171.073 1332.17 163.224 1322.79C146.677 1302.96 130.135 1283.64 116.383 1261.99C110.753 1253.13 105.556 1243.67 101.094 1233.08C93.7087 1215.54 87.8439 1194.46 81.2261 1171.48C73.9504 1146.18 66.4316 1122.97 65.6666 1101.89C65.3704 1093.78 66.1211 1086.26 67.5234 1079.13C71.5239 1058.75 80.7417 1040.81 90.0306 1023.95C99.1857 1007.13 108.934 990.047 118.428 972.598C142.617 928.206 163.943 880.951 174.802 820.774C181.726 782.407 185.206 739.124 182.025 692.346C179.992 661.863 175.005 631.729 168.469 602.646C154.642 541.171 133.001 486.174 108.606 437.042C84.0695 387.629 55.9034 341.941 27.9691 291.029C15.1204 267.576 2.22397 243.179 -9.84647 217.428C-24.7752 185.455 -38.4787 150.559 -40.955 113.202C-43.4496 75.8012 -32.4154 35.6481 -8.50632 13.1588" stroke="#021F41" stroke-width="0.67" stroke-miterlimit="10"/>
<path opacity="0.8" d="M455.38 2191.59C505.216 2103.38 500.284 2001.04 473.548 1897.13C455.113 1825.41 425.765 1754.44 390.92 1695.16C359.83 1642.26 324.851 1591.5 289.255 1542.48C275.489 1523.59 261.618 1504.95 248.846 1486.78C218.599 1443.76 193.935 1405.49 169.197 1371.36C161.947 1361.34 154.718 1351.62 147.548 1342.12C132.485 1322.09 117.552 1302.64 105.318 1281.07C100.3 1272.25 95.6857 1262.81 91.8179 1252.21C85.3766 1234.62 80.2983 1213.43 73.7281 1190.24C66.4818 1164.7 58.1866 1141.75 56.4457 1121.15C55.7796 1113.22 56.1472 1105.91 57.1351 1098.97C59.9862 1079.22 67.8664 1061.83 75.7232 1045.47C83.5851 1029.19 91.901 1012.61 99.995 995.684C120.701 952.639 138.409 906.787 146.702 846.826C151.977 808.692 154.329 765.194 150.766 718.183C148.445 687.505 143.518 657.138 137.315 627.788C124.231 565.775 104.596 510.399 82.3666 460.771C60.0145 410.907 34.153 364.744 7.92635 313.108C-4.15111 289.312 -16.4283 264.584 -28.0315 238.512C-42.3592 206.162 -55.7212 170.892 -58.2756 133.281C-60.8482 95.6258 -50.3613 55.2801 -27.3836 32.1048" stroke="#021F41" stroke-width="0.67" stroke-miterlimit="10"/>
<path opacity="0.78" d="M452.071 2207.24C495.122 2121.91 484.581 2023.16 454.013 1920.64C433.067 1850.42 402.121 1779.99 366.282 1720.45C334.444 1667.57 299.283 1616.36 264.079 1566.58C250.463 1547.42 236.845 1528.45 224.553 1509.92C195.382 1466.1 172.995 1427.16 150.553 1392.66C143.969 1382.55 137.463 1372.69 131.022 1363.12C117.474 1342.92 104.106 1323.35 93.3705 1301.82C88.9666 1293.02 84.9469 1283.58 81.6293 1272.99C76.1133 1255.31 71.8711 1234.06 65.3171 1210.66C58.1002 1184.87 49.0602 1162.2 46.3119 1142.06C45.2626 1134.34 45.2289 1127.2 45.8205 1120.5C47.491 1101.36 54.0019 1084.51 60.5342 1068.66C67.0401 1052.88 73.9554 1036.82 80.7562 1020.43C97.9918 978.698 112.115 934.261 117.816 874.581C121.454 836.648 122.695 792.98 118.719 745.721C116.128 714.893 111.244 684.249 105.393 654.677C93.0648 592.094 75.4222 536.371 55.314 486.265C35.1459 435.95 11.6022 389.28 -12.9431 336.982C-24.2625 312.876 -35.9073 287.785 -47.0433 261.392C-60.8014 228.653 -73.7905 193.022 -76.3915 155.17C-79.029 117.228 -69.0893 76.6901 -47.0563 52.8602" stroke="#021F41" stroke-width="0.66" stroke-miterlimit="10"/>
<path opacity="0.76" d="M448.144 2224.36C484.439 2141.93 468.335 2046.76 433.891 1945.64C410.478 1876.9 377.935 1807.02 341.055 1747.23C308.471 1694.36 273.114 1642.74 238.315 1592.17C224.863 1572.71 211.528 1553.41 199.673 1534.55C171.591 1489.89 151.422 1450.33 131.353 1415.46C125.448 1405.23 119.639 1395.29 113.909 1385.61C101.858 1365.19 90.1169 1345.53 80.8357 1324.05C77.045 1315.29 73.6069 1305.87 70.8975 1295.24C66.325 1277.51 62.8693 1256.15 56.3314 1232.53C49.1439 1206.5 39.3144 1184.13 35.5902 1164.46C34.171 1156.92 33.7542 1149.98 33.9496 1143.53C34.4525 1124.97 39.5811 1108.68 44.7573 1093.34C49.9072 1078.06 55.4534 1062.54 60.8537 1046.66C74.606 1006.28 85.1252 963.218 88.2647 903.831C90.2547 866.13 90.3848 822.292 85.9764 774.741C83.1162 743.763 78.2615 712.872 72.7887 683.016C61.2033 619.894 45.5663 563.793 27.6238 513.192C9.62663 462.456 -11.6176 415.236 -34.4369 362.257C-44.9851 337.81 -56.0238 312.418 -66.6481 285.685C-79.8235 252.526 -92.4345 216.61 -95.1318 178.459C-97.8027 140.245 -88.455 99.5323 -67.3402 74.9849" stroke="#021F41" stroke-width="0.65" stroke-miterlimit="10"/>
<path opacity="0.73" d="M443.919 2242.98C473.416 2163.46 451.81 2071.9 413.472 1972.15C387.61 1904.92 353.407 1835.57 315.501 1775.49C282.169 1722.65 246.63 1670.58 212.224 1619.25C198.921 1599.52 185.838 1579.88 174.432 1560.66C147.471 1515.18 129.534 1474.96 111.793 1439.74C106.598 1429.4 101.469 1419.34 96.4353 1409.58C85.8995 1388.98 75.7548 1369.21 67.9726 1347.77C64.795 1339.05 61.9519 1329.62 59.7928 1319C56.1639 1301.22 53.4946 1279.74 47.0044 1255.92C39.8776 1229.66 29.2718 1207.55 24.5402 1188.35C22.7379 1181.02 21.9512 1174.26 21.7321 1168C21.0675 1150.02 24.8452 1134.32 28.6522 1119.51C32.4461 1104.73 36.6231 1089.75 40.6359 1074.36C50.9049 1035.33 57.8386 993.675 58.3674 934.524C58.7085 897.055 57.741 853.016 52.9191 805.218C49.8025 774.058 44.9772 742.922 39.8377 712.798C28.9952 649.138 15.3507 592.691 -0.45742 541.58C-16.2706 490.393 -35.1838 442.635 -56.3351 389.025C-66.112 364.237 -76.5315 338.513 -86.7017 311.49C-99.3075 277.941 -111.546 241.665 -114.29 203.272C-117.039 164.804 -108.225 123.868 -88.0861 98.6525" stroke="#021F41" stroke-width="0.65" stroke-miterlimit="10"/>
<path opacity="0.71" d="M439.854 2263.08C462.596 2186.45 435.489 2098.5 393.211 2000.12C364.946 1934.4 329.051 1865.56 290.136 1805.24C256.058 1752.42 220.292 1699.92 186.291 1647.8C173.152 1627.77 160.308 1607.83 149.382 1588.25C123.51 1541.93 107.792 1501.09 92.3916 1465.48C87.8762 1455.02 83.4439 1444.89 79.1525 1435.03C70.1318 1414.26 61.5651 1394.33 55.2686 1372.96C52.7042 1364.28 50.456 1354.84 48.8786 1344.24C46.175 1326.37 44.2972 1304.85 37.8678 1280.8C30.7704 1254.29 19.4065 1232.49 13.6807 1213.73C11.5085 1206.57 10.3388 1200.02 9.69196 1193.99C7.84677 1176.62 10.2552 1161.45 12.7063 1147.15C15.1441 1132.87 17.9337 1118.38 20.5955 1103.57C27.4259 1065.86 30.7111 1025.6 28.6788 966.745C27.3711 929.509 25.3059 885.268 20.0523 837.178C16.6661 805.869 11.8701 774.486 7.09553 744.109C-3.0224 679.866 -14.643 623.085 -28.2853 571.478C-41.9277 519.871 -58.5099 471.576 -77.9981 417.259C-87.0037 392.129 -96.804 366.074 -106.507 338.73C-118.499 304.773 -130.408 268.154 -133.23 229.507C-136.044 190.753 -127.791 149.656 -108.584 123.754" stroke="#021F41" stroke-width="0.64" stroke-miterlimit="10"/>
<path opacity="0.68" d="M436.202 2284.56C452.144 2210.85 419.613 2126.5 373.333 2029.47C342.708 1965.24 305.096 1896.97 265.154 1836.37C230.361 1783.58 194.381 1730.62 160.785 1677.71C147.827 1657.42 135.249 1637.11 124.759 1617.2C99.9946 1570.09 86.5077 1528.6 73.4619 1492.57C69.6255 1481.99 65.9036 1471.74 62.3095 1461.81C54.7725 1440.85 47.8335 1420.83 43.0359 1399.5C41.0847 1390.85 39.4313 1381.4 38.4043 1370.81C36.6574 1352.86 35.5528 1331.26 29.1711 1307.01C22.1031 1280.25 9.94977 1258.75 3.26116 1240.43C0.705927 1233.48 -0.865188 1227.1 -1.90827 1221.3C-4.92096 1204.52 -3.89492 1189.92 -2.79988 1176.11C-1.68659 1162.36 -0.297606 1148.38 0.963628 1134.09C4.31077 1097.74 4.02352 1058.86 -0.632582 1000.27C-3.55786 963.28 -6.78343 918.811 -12.4192 870.487C-16.075 839.028 -20.8283 807.367 -25.2381 776.737C-34.6132 711.956 -44.2413 654.827 -55.7493 602.711C-67.2521 550.671 -81.472 501.851 -99.2657 446.841C-107.513 421.401 -116.681 394.983 -125.917 367.317C-137.339 332.971 -148.889 296.023 -151.745 257.103C-154.623 218.063 -146.917 176.773 -128.641 150.186" stroke="#021F41" stroke-width="0.64" stroke-miterlimit="10"/>
<path opacity="0.66" d="M433.169 2307.31C442.356 2236.49 404.4 2155.73 354.104 2060.09C321.107 1997.38 281.772 1929.6 240.791 1868.75C205.263 1815.95 169.074 1762.61 135.884 1708.91C123.089 1688.32 110.75 1667.7 100.754 1647.41C77.079 1599.46 65.8552 1557.33 55.1373 1520.95C51.9982 1510.29 48.9868 1499.94 46.1031 1489.9C40.0812 1468.75 34.707 1448.62 31.4215 1427.29C30.0834 1418.67 29.0564 1409.23 28.5796 1398.65C27.7895 1380.62 27.4582 1358.94 21.0927 1334.47C14.0541 1307.47 1.15583 1286.25 -6.54016 1268.39C-9.4653 1261.62 -11.4195 1255.45 -12.8457 1249.86C-17.0258 1233.66 -17.3507 1219.63 -17.6117 1206.33C-17.8544 1193.08 -17.8661 1179.63 -17.9294 1165.85C-18.0656 1130.85 -21.9384 1093.38 -29.1606 1035.01C-33.7348 998.253 -38.0712 953.614 -44.1073 905.011C-48.0195 873.37 -52.7435 841.463 -56.8199 810.566C-65.4389 745.215 -73.1192 687.758 -82.4613 635.146C-91.7802 582.655 -103.682 533.329 -119.795 477.657C-127.271 451.874 -135.82 425.125 -144.588 397.138C-155.441 362.403 -166.618 325.093 -169.538 285.888C-172.482 246.562 -165.323 205.08 -147.992 177.838" stroke="#021F41" stroke-width="0.63" stroke-miterlimit="10"/>
<path opacity="0.63" d="M430.995 2331.26C433.415 2263.37 390.078 2186.2 335.735 2091.92C300.411 2030.71 259.339 1963.46 217.318 1902.36C181.044 1849.58 144.672 1795.8 111.874 1741.33C99.2291 1720.47 87.1558 1699.49 77.6263 1678.87C55.0412 1630.09 46.0359 1587.33 37.6591 1550.57C35.199 1539.78 32.898 1529.33 30.7116 1519.21C26.1734 1497.87 22.4137 1477.68 20.6404 1456.35C19.9154 1447.77 19.4833 1438.32 19.5569 1427.74C19.7234 1409.64 20.1655 1387.88 13.8344 1363.24C6.82516 1335.99 -6.83121 1315.08 -15.5214 1297.65C-18.7982 1291.11 -21.1537 1285.1 -23.0076 1279.74C-28.3685 1264.15 -30.0625 1250.66 -31.6926 1237.89C-33.2914 1225.14 -34.6722 1212.22 -36.1362 1198.97C-39.7555 1165.31 -47.1695 1129.25 -57.0155 1071.14C-63.1941 1034.6 -68.6726 989.775 -75.1536 940.912C-79.3354 909.121 -83.9986 876.981 -87.7283 845.786C-95.6045 779.897 -101.279 722.061 -108.456 668.953C-115.604 616.042 -125.143 566.192 -139.592 509.813C-146.298 483.689 -154.227 456.608 -162.528 428.3C-172.798 393.144 -183.616 355.505 -186.614 316.045C-189.636 276.465 -183.056 234.777 -166.624 206.862" stroke="#021F41" stroke-width="0.63" stroke-miterlimit="10"/>
<path opacity="0.61" d="M429.916 2356.3C425.55 2291.29 376.94 2217.71 318.462 2124.84C280.854 2065.11 237.988 1998.44 194.941 1937.06C157.951 1884.31 121.321 1830.08 88.9597 1774.84C76.4779 1753.68 64.6438 1732.39 55.5947 1711.42C34.1304 1661.81 27.3567 1618.41 21.3079 1581.29C19.5268 1570.38 17.9231 1559.85 16.4786 1549.63C13.4556 1528.12 11.2606 1507.8 10.9862 1486.52C10.8744 1477.97 11.0372 1468.51 11.6925 1457.96C12.8157 1439.77 14.0624 1417.94 7.74755 1393.09C0.799142 1365.61 -13.6335 1344.96 -23.3442 1328.03C-26.9909 1321.66 -29.761 1315.85 -32.0111 1310.73C-38.5709 1295.71 -41.6158 1282.8 -44.5706 1270.55C-47.5567 1258.29 -50.2622 1245.88 -53.0953 1233.17C-60.1848 1200.83 -71.1976 1166.21 -83.6543 1108.34C-91.4818 1072.02 -98.0579 1027 -104.952 977.891C-109.422 945.905 -114.024 913.532 -117.403 882.115C-124.523 815.656 -128.218 757.505 -133.26 703.888C-138.269 650.543 -145.446 600.169 -158.214 543.128C-164.116 516.675 -171.458 489.249 -179.305 460.651C-189.006 425.106 -199.432 387.15 -202.495 347.405C-205.55 307.552 -199.549 265.658 -184.08 237.044" stroke="#021F41" stroke-width="0.62" stroke-miterlimit="10"/>
<path opacity="0.59" d="M430.144 2382.37C419.009 2320.29 365.077 2250.24 302.494 2158.79C262.602 2100.54 217.925 2034.4 173.869 1972.78C136.145 1920.02 99.3198 1865.38 67.3506 1809.38C55.0189 1787.95 43.4684 1766.33 34.8683 1744.99C14.4803 1694.59 9.93839 1650.53 6.26211 1613.04C5.19146 1602.02 4.26669 1591.36 3.51937 1581.07C2.02468 1559.35 1.38137 1538.95 2.63727 1517.71C3.13862 1509.2 3.89633 1499.73 5.11513 1489.15C7.22652 1470.9 9.21518 1448.98 2.9165 1423.91C-4.00253 1396.18 -19.1486 1375.83 -29.8982 1359.35C-33.9148 1353.16 -37.0811 1347.58 -39.7326 1342.63C-47.4913 1328.18 -51.8872 1315.85 -56.1979 1304.1C-60.5401 1292.34 -64.6462 1280.46 -68.8485 1268.28C-79.3898 1237.29 -93.975 1204.06 -109.056 1146.46C-118.501 1110.39 -126.206 1065.15 -133.532 1015.75C-138.271 983.615 -142.831 950.963 -145.876 919.28C-152.284 852.269 -153.956 793.784 -156.819 739.64C-159.657 685.875 -164.49 634.932 -175.576 577.229C-180.708 550.434 -187.43 522.677 -194.81 493.757C-203.91 457.836 -213.994 419.507 -217.135 379.507C-220.268 339.399 -214.815 297.313 -200.291 268.044" stroke="#021F41" stroke-width="0.61" stroke-miterlimit="10"/>
<path opacity="0.56" d="M431.925 2409.31C414.005 2350.11 354.844 2283.63 288.049 2193.6C245.919 2136.81 199.416 2071.24 154.289 2009.35C115.85 1956.62 78.7973 1901.55 47.2335 1844.76C35.0963 1823.05 23.7668 1801.08 15.6339 1779.42C-3.63323 1728.19 -5.95684 1683.51 -7.32343 1645.62C-7.71506 1634.48 -7.94245 1623.74 -7.94791 1613.36C-7.95888 1591.45 -7.01914 1570.97 -4.25113 1549.74C-3.1498 1541.29 -1.75261 1531.79 0.0165186 1521.23C3.08462 1502.9 5.84651 1480.89 -0.404552 1455.62C-7.28103 1427.61 -23.1852 1407.57 -34.9422 1391.56C-39.3419 1385.58 -42.9094 1380.16 -45.9571 1375.45C-54.9279 1361.6 -60.6484 1349.78 -66.3284 1338.57C-72.0266 1327.32 -77.5018 1315.97 -83.0601 1304.29C-97.0847 1274.65 -115.242 1242.81 -132.947 1185.47C-143.996 1149.62 -152.857 1104.23 -160.583 1054.55C-165.592 1022.26 -170.122 989.362 -172.789 957.394C-178.442 889.814 -178.165 831 -178.863 776.359C-179.561 722.162 -182.032 670.694 -191.437 612.329C-195.797 585.192 -201.9 557.104 -208.782 527.876C-217.298 491.534 -227.023 452.875 -230.211 412.634C-233.409 372.241 -228.502 329.962 -214.91 300.007" stroke="#021F41" stroke-width="0.61" stroke-miterlimit="10"/>
<path opacity="0.54" d="M435.471 2437.07C410.783 2380.79 346.389 2317.81 275.387 2229.26C231.031 2173.9 182.69 2108.93 136.523 2046.79C97.3505 1994.05 60.0889 1938.6 28.8991 1881C16.9119 1859.02 5.83476 1836.72 -1.84922 1814.69C-20.0269 1762.62 -20.0873 1717.3 -19.1128 1679.03C-18.8386 1667.8 -18.3424 1656.92 -17.6506 1646.46C-16.1464 1624.37 -13.655 1603.8 -9.34351 1582.59C-7.62903 1574.18 -5.63695 1564.67 -3.28609 1554.13C0.770145 1535.73 4.26075 1513.66 -1.9295 1488.16C-8.7766 1459.91 -25.4389 1440.17 -38.19 1424.59C-42.9282 1418.8 -46.9417 1413.57 -50.3543 1409.11C-60.5372 1395.87 -67.5955 1384.59 -74.6132 1373.93C-81.6674 1363.18 -88.5431 1352.35 -95.4706 1341.21C-112.978 1312.92 -134.677 1282.47 -155.006 1225.4C-167.672 1189.79 -177.693 1144.17 -185.833 1094.24C-191.099 1061.78 -195.6 1028.63 -197.915 996.443C-202.824 928.324 -200.556 869.163 -199.087 814.027C-197.615 759.409 -197.754 707.404 -205.497 648.332C-209.098 620.885 -214.569 592.434 -220.984 562.884C-228.931 526.153 -238.296 487.165 -241.548 446.638C-244.811 405.959 -240.465 363.519 -227.791 332.847" stroke="#021F41" stroke-width="0.6" stroke-miterlimit="10"/>
<path opacity="0.51" d="M440.987 2465.5C409.512 2412.11 339.947 2352.65 264.708 2265.57C218.126 2211.65 167.915 2147.26 120.74 2084.88C80.8514 2032.17 43.3447 1976.25 12.5785 1917.91C0.741251 1895.65 -10.0703 1872.98 -17.2871 1850.63C-34.3753 1797.73 -32.2174 1751.78 -28.8703 1713.14C-27.8857 1701.8 -26.6922 1690.85 -25.29 1680.28C-22.3021 1658 -18.2145 1637.32 -12.3909 1616.12C-10.0947 1607.73 -7.4316 1598.21 -4.57502 1587.69C0.437938 1569.21 4.70183 1547.06 -1.47222 1521.34C-8.28993 1492.85 -25.6657 1473.41 -39.4557 1458.28C-44.5638 1452.66 -48.9604 1447.64 -52.7874 1443.38C-64.1692 1430.7 -72.5785 1420.01 -80.9522 1409.84C-89.3938 1399.58 -97.5942 1389.27 -105.904 1378.69C-126.882 1351.72 -152.135 1322.7 -175.074 1265.86C-189.358 1230.5 -200.508 1184.67 -209.062 1134.49C-214.597 1101.88 -219.068 1068.49 -221.037 1036C-225.19 967.31 -220.974 907.821 -217.326 852.157C-213.714 797.106 -211.478 744.545 -217.539 684.811C-220.37 657.023 -225.222 628.239 -231.182 598.4C-238.546 561.248 -247.551 521.93 -250.851 481.162C-254.179 440.197 -250.38 397.565 -238.65 366.238" stroke="#021F41" stroke-width="0.6" stroke-miterlimit="10"/>
<path opacity="0.49" d="M448.681 2494.55C410.439 2444.08 335.698 2388.07 256.207 2302.5C207.445 2249.99 155.351 2186.21 107.104 2123.57C66.5132 2070.87 28.7662 2014.55 -1.59465 1955.41C-13.2687 1932.86 -23.8097 1909.89 -30.5775 1887.18C-46.558 1833.48 -42.1684 1786.89 -36.5117 1747.84C-34.848 1736.38 -32.9441 1725.32 -30.8445 1714.67C-26.3415 1692.21 -20.7023 1671.45 -13.3352 1650.26C-10.4258 1641.92 -7.13643 1632.4 -3.72952 1621.89C2.27157 1603.35 7.27727 1581.1 1.15084 1555.18C-5.60607 1526.45 -23.7581 1507.27 -38.5554 1492.61C-44.0152 1487.22 -48.8578 1482.38 -53.0679 1478.32C-65.6618 1466.24 -75.4219 1456.13 -85.107 1446.45C-94.9046 1436.69 -104.506 1426.9 -114.172 1416.83C-138.601 1391.22 -167.427 1363.58 -193.021 1307C-208.91 1271.85 -221.202 1225.83 -230.169 1175.41C-235.973 1142.65 -240.402 1108.98 -242.006 1076.24C-245.417 1007.01 -239.239 947.159 -233.394 891.012C-227.643 835.528 -223.045 782.443 -227.424 722.047C-229.484 693.917 -233.716 664.802 -239.209 634.641C-245.973 597.113 -254.649 557.453 -258.014 516.399C-261.42 475.179 -258.168 432.355 -247.401 400.328" stroke="#021F41" stroke-width="0.59" stroke-miterlimit="10"/>
<path opacity="0.46" d="M458.728 2524.07C413.731 2476.5 333.827 2423.9 250.027 2339.89C199.052 2288.77 145.12 2225.6 95.8202 2162.74C54.4958 2110.02 16.5533 2053.28 -13.4154 1993.39C-24.9395 1970.57 -35.2282 1947.26 -41.5025 1924.16C-56.3935 1869.63 -49.7722 1822.38 -41.7561 1783C-39.4134 1771.42 -36.8123 1760.28 -33.9709 1749.53C-27.9527 1726.9 -20.7801 1706 -11.8826 1684.86C-8.40471 1676.57 -4.4758 1667.02 -0.518583 1656.52C6.47064 1637.92 12.2182 1615.57 6.1394 1589.45C-0.588135 1560.47 -19.4719 1541.54 -35.2715 1527.42C-41.1012 1522.21 -46.3583 1517.56 -50.9647 1513.75C-64.7838 1502.3 -75.8686 1492.7 -86.9097 1483.53C-98.0634 1474.27 -109.034 1465.02 -120.069 1455.48C-147.982 1431.21 -180.348 1404.97 -208.566 1348.66C-226.059 1313.73 -239.507 1267.56 -248.905 1216.84C-254.966 1183.9 -259.366 1149.98 -260.649 1117C-263.336 1047.19 -255.147 987.042 -247.155 930.355C-239.264 874.438 -232.272 820.841 -234.989 759.738C-236.245 731.28 -239.89 701.82 -244.916 671.338C-251.11 633.421 -259.413 593.399 -262.843 552.06C-266.282 510.568 -263.609 467.537 -253.773 434.825" stroke="#021F41" stroke-width="0.58" stroke-miterlimit="10"/>
<path opacity="0.44" d="M471.426 2553.96C419.629 2509.31 334.64 2460.12 246.53 2377.66C193.388 2327.93 137.559 2265.4 87.2195 2202.28C45.1928 2149.56 7.00988 2092.44 -22.5535 2031.75C-33.9144 2008.63 -43.9506 1984.99 -49.7577 1961.56C-63.5278 1906.21 -54.6881 1858.34 -44.3309 1818.57C-41.2778 1806.88 -37.9976 1795.62 -34.4589 1784.8C-26.957 1761.97 -18.2329 1740.98 -7.76043 1719.88C-3.66935 1711.62 0.885879 1702.08 5.40659 1691.56C13.3839 1672.88 19.8734 1650.44 13.8422 1624.12C7.14407 1594.9 -12.4532 1576.26 -29.2916 1562.59C-35.4912 1557.55 -41.1313 1553.12 -46.1208 1549.51C-61.152 1538.66 -73.5746 1529.61 -85.9849 1520.98C-98.5077 1512.25 -110.834 1503.5 -123.256 1494.45C-154.64 1471.5 -190.547 1446.66 -221.434 1390.63C-240.544 1355.94 -255.121 1309.56 -264.92 1258.57C-271.25 1225.47 -275.621 1191.31 -276.526 1158.05C-278.469 1087.7 -268.32 1027.19 -258.13 970.016C-248.1 913.665 -238.733 859.513 -239.781 797.779C-240.266 768.979 -243.292 739.188 -247.85 708.385C-253.461 670.046 -261.374 629.709 -264.881 588.114C-268.385 546.337 -266.26 503.114 -257.369 469.747" stroke="#021F41" stroke-width="0.58" stroke-miterlimit="10"/>
<path opacity="0.41" d="M486.94 2584.19C428.389 2542.42 338.263 2496.59 245.849 2415.76C190.521 2367.37 132.815 2305.53 81.4036 2242.15C38.6745 2189.43 0.233258 2131.86 -28.9065 2070.43C-40.086 2047.05 -49.9015 2023.06 -55.2282 1999.28C-67.9089 1943.09 -56.806 1894.58 -44.1523 1854.44C-40.4333 1842.66 -36.4427 1831.3 -32.1622 1820.38C-23.132 1797.34 -12.8561 1776.27 -0.884725 1755.2C3.78809 1746.96 9.00102 1737.44 14.0406 1726.92C23.0375 1708.19 30.2688 1685.65 24.2225 1659.1C17.5537 1629.63 -2.78848 1611.27 -20.6342 1598.07C-27.1723 1593.22 -33.2716 1589 -38.6441 1585.6C-54.8875 1575.36 -68.6477 1566.85 -82.3826 1558.73C-96.2929 1550.5 -109.988 1542.28 -123.749 1533.78C-158.615 1512.18 -198.063 1488.73 -231.574 1432.97C-252.289 1398.49 -268.039 1351.92 -278.251 1300.67C-284.87 1267.38 -289.148 1233 -289.72 1199.47C-290.907 1128.56 -278.796 1067.68 -266.441 1010.02C-254.272 953.234 -242.542 898.557 -241.895 836.13C-241.61 806.988 -244.016 776.865 -248.107 745.74C-253.149 707.013 -260.702 666.346 -264.274 624.466C-267.856 582.434 -266.278 539.018 -258.318 504.965" stroke="#021F41" stroke-width="0.57" stroke-miterlimit="10"/>
<path opacity="0.39" d="M505.52 2614.59C440.17 2575.74 344.953 2533.23 248.235 2454.04C190.752 2407 131.149 2345.8 78.685 2282.2C35.209 2229.51 -3.42783 2171.52 -32.1936 2109.29C-43.21 2085.61 -52.7416 2061.29 -57.6325 2037.18C-69.2369 1980.18 -55.9025 1931.02 -40.8631 1890.48C-36.4651 1878.58 -31.7325 1867.11 -26.7862 1856.11C-16.2723 1832.88 -4.43169 1811.69 9.10145 1790.68C14.3874 1782.48 20.2267 1772.96 25.8166 1762.44C35.8017 1743.65 43.7616 1721.05 37.7761 1694.27C31.1367 1664.55 10.0628 1646.44 -8.80349 1633.73C-15.7115 1629.06 -22.1939 1625.05 -27.9941 1621.88C-45.4627 1612.26 -60.5608 1604.31 -75.6385 1596.66C-90.9048 1588.93 -105.956 1581.21 -121.099 1573.27C-159.448 1553.02 -202.425 1530.94 -238.572 1475.48C-260.891 1441.22 -277.784 1394.46 -288.41 1342.97C-295.298 1309.53 -299.533 1274.87 -299.772 1241.07C-300.216 1169.62 -286.145 1108.38 -271.592 1050.24C-257.283 993.019 -243.146 937.799 -240.882 874.683C-239.825 845.2 -241.625 814.777 -245.249 783.331C-249.708 744.183 -256.901 703.186 -260.52 661.065C-264.167 618.747 -263.136 575.139 -256.152 540.418" stroke="#021F41" stroke-width="0.57" stroke-miterlimit="10"/>
<path opacity="0.37" d="M527.389 2645.08C455.284 2609.12 354.957 2569.9 253.877 2492.39C194.221 2446.65 132.727 2386.18 79.2235 2322.33C35.0452 2269.64 -3.81862 2211.22 -32.1922 2148.23C-43.0586 2124.28 -52.3378 2099.62 -56.7484 2075.16C-67.2319 2017.34 -51.679 1967.56 -34.2985 1926.63C-29.19 1914.62 -23.7917 1903.07 -18.1035 1891.96C-6.07444 1868.56 7.29957 1847.23 22.3631 1826.28C28.2308 1818.1 34.7278 1808.59 40.8366 1798.08C51.8098 1779.22 60.5116 1756.52 54.5736 1729.54C47.9951 1699.59 26.1449 1681.74 6.27122 1669.49C-1.00671 1665 -7.91671 1661.22 -14.0869 1658.23C-32.7493 1649.26 -49.2034 1641.8 -65.6189 1634.7C-82.2543 1627.5 -98.6932 1620.28 -115.192 1612.85C-156.993 1593.95 -203.529 1573.23 -242.332 1518.02C-266.255 1483.97 -284.303 1437.06 -295.329 1385.29C-302.487 1351.7 -306.693 1316.79 -306.567 1282.74C-306.255 1210.72 -290.235 1149.16 -273.517 1090.51C-257.069 1032.86 -240.57 977.119 -236.623 913.341C-234.764 883.529 -235.976 852.762 -239.102 821.007C-242.96 781.483 -249.811 740.112 -253.508 697.737C-257.22 655.133 -256.781 611.351 -250.684 575.926" stroke="#021F41" stroke-width="0.56" stroke-miterlimit="10"/>
<path opacity="0.34" d="M552.928 2675.18C474.037 2642.11 368.644 2606.16 263.221 2530.37C201.437 2485.92 138.02 2426.16 83.4635 2362.09C38.596 2309.36 -0.521238 2250.59 -28.4895 2186.8C-39.1927 2162.55 -48.2329 2137.59 -52.1945 2112.76C-61.5886 2054.11 -43.7726 2003.68 -24.0955 1962.38C-18.308 1950.25 -12.2125 1938.62 -5.82701 1927.44C7.71718 1903.86 22.6115 1882.43 39.2316 1861.47C45.6993 1853.36 52.8358 1843.82 59.495 1833.31C71.4877 1814.4 80.9 1791.6 74.9783 1764.4C68.4291 1734.2 45.8786 1716.62 24.9529 1704.85C17.3051 1700.54 10.012 1696.96 3.44559 1694.21C-16.4421 1685.87 -34.2208 1678.94 -51.9923 1672.33C-69.9838 1665.64 -87.7918 1658.95 -105.66 1652.05C-150.931 1634.48 -201.008 1615.14 -242.448 1560.23C-267.975 1526.4 -287.165 1479.31 -298.637 1427.28C-306.051 1393.5 -310.227 1358.35 -309.736 1324.05C-308.713 1251.47 -290.701 1189.57 -271.773 1130.41C-253.185 1072.32 -234.292 1016.07 -228.682 951.585C-226.065 921.463 -226.645 890.332 -229.303 858.256C-232.591 818.343 -239.083 776.643 -242.813 733.994C-246.59 691.105 -246.698 647.13 -241.546 611.05" stroke="#021F41" stroke-width="0.56" stroke-miterlimit="10"/>
<path opacity="0.32" d="M583.329 2702.41C497.67 2672.26 387.163 2639.53 277.427 2565.48C213.47 2522.34 148.176 2463.26 92.5346 2398.96C46.9647 2346.23 7.58894 2287.02 -19.9557 2222.49C-30.5089 2197.96 -39.2522 2172.65 -42.778 2147.49C-51.0512 2088.01 -31.0481 2036.95 -8.99847 1995.28C-2.53195 1983.03 4.27403 1971.29 11.3882 1960.04C26.4161 1936.27 42.8751 1914.72 61.057 1893.82C68.1065 1885.73 75.9008 1876.21 83.0788 1865.7C96.0597 1846.72 106.214 1823.82 100.34 1796.42C93.8199 1765.98 70.5245 1748.67 48.5783 1737.4C40.5788 1733.31 32.8398 1729.92 25.8903 1727.38C4.79046 1719.64 -14.3259 1713.25 -33.4534 1707.15C-52.8009 1700.96 -71.9782 1694.81 -91.2334 1688.4C-139.988 1672.17 -193.593 1654.2 -237.67 1599.59C-264.802 1565.97 -285.134 1518.69 -297.005 1466.39C-304.689 1432.46 -308.836 1397.07 -307.999 1362.47C-306.22 1289.32 -286.26 1227.08 -265.165 1167.43C-244.438 1108.91 -223.169 1052.1 -215.892 986.985C-212.503 956.521 -212.464 925.059 -214.655 892.662C-217.361 852.327 -223.493 810.297 -227.301 767.395C-231.124 724.264 -231.811 680.084 -227.59 643.318" stroke="#021F41" stroke-width="0.55" stroke-miterlimit="10"/>
<path opacity="0.29" d="M618.088 2728.58C525.643 2701.32 410.052 2671.81 295.991 2599.53C229.856 2557.62 162.676 2499.34 105.995 2434.79C59.6911 2382.05 20.1066 2322.45 -7.03272 2257.13C-17.3914 2232.32 -25.9268 2206.68 -28.9722 2181.17C-36.1692 2120.89 -13.8899 2069.15 10.4876 2027.13C17.6514 2014.8 25.1365 2002.94 32.9611 1991.59C49.5042 1967.64 67.5097 1945.92 87.2089 1925.11C94.84 1917.04 103.292 1907.54 111.02 1897.03C125.008 1878.03 135.885 1854.99 130.046 1827.42C123.555 1796.73 99.5282 1779.68 76.5614 1768.9C68.192 1764.99 60.0699 1761.8 52.7059 1759.46C30.4122 1752.36 9.92665 1746.51 -10.5123 1740.9C-31.2289 1735.24 -51.7804 1729.54 -72.3866 1723.71C-124.625 1708.83 -181.757 1692.23 -228.502 1637.9C-257.239 1604.5 -278.744 1557.02 -291.03 1504.47C-298.983 1470.4 -303.088 1434.72 -301.898 1399.9C-299.376 1326.22 -277.487 1263.61 -254.151 1203.45C-231.315 1144.49 -207.621 1087.18 -198.681 1021.36C-194.489 990.563 -193.862 958.757 -195.586 926.038C-197.722 885.314 -203.45 842.937 -207.323 799.749C-211.212 756.332 -212.446 711.959 -209.156 674.507" stroke="#021F41" stroke-width="0.54" stroke-miterlimit="10"/>
<path opacity="0.27" d="M657.265 2753.91C558.052 2729.57 437.373 2703.21 318.973 2632.74C250.678 2592.1 181.607 2534.54 123.886 2469.74C76.88 2417 37.0684 2356.97 10.3345 2290.86C0.125845 2265.78 -8.14405 2239.78 -10.7091 2213.91C-16.8166 2152.79 7.68109 2100.44 34.3997 2058.03C42.2425 2045.58 50.4381 2033.61 58.9914 2022.19C77.0314 1998.02 96.5885 1976.22 117.849 1955.46C126.094 1947.43 135.172 1937.94 143.432 1927.4C158.408 1908.33 170.028 1885.2 164.204 1857.41C157.743 1826.47 132.984 1809.66 108.997 1799.39C100.258 1795.65 91.7077 1792.69 83.9607 1790.55C60.4417 1784.09 38.6498 1778.8 16.8234 1773.67C-5.26238 1768.55 -27.1698 1763.36 -49.1635 1758.02C-104.885 1744.48 -165.545 1729.25 -214.927 1675.22C-245.268 1642.03 -267.929 1594.4 -280.615 1541.57C-288.824 1507.32 -292.9 1471.4 -291.345 1436.32C-288.068 1362.07 -264.217 1299.1 -238.728 1238.47C-213.753 1179.08 -187.697 1121.25 -177.075 1054.76C-172.113 1023.63 -170.866 991.489 -172.136 958.481C-173.671 917.381 -179.071 874.661 -183.009 831.186C-186.962 787.484 -188.756 742.95 -186.43 704.799" stroke="#021F41" stroke-width="0.54" stroke-miterlimit="10"/>
<path opacity="0.24" d="M700.998 2778.42C595.031 2756.97 469.231 2733.75 346.48 2665.11C276.007 2625.7 205.063 2568.91 146.258 2503.87C98.5494 2451.14 58.4977 2390.71 32.1691 2323.81C22.1236 2298.43 14.0928 2272.12 12.0081 2245.9C7.02145 2183.96 33.7377 2130.98 62.8106 2088.16C71.3325 2075.58 80.2566 2063.55 89.489 2052.01C109.044 2027.66 130.135 2005.73 152.926 1985.02C161.752 1977.01 171.475 1967.56 180.299 1957C196.28 1937.91 208.655 1914.65 202.848 1886.65C196.448 1855.48 170.913 1838.94 145.918 1829.13C136.809 1825.57 127.876 1822.82 119.732 1820.92C95.0327 1815.07 71.8717 1810.31 48.7207 1805.7C25.2789 1801.09 1.97077 1796.41 -21.3606 1791.62C-80.5206 1779.42 -144.753 1765.57 -196.804 1711.82C-228.749 1678.85 -252.552 1631.04 -265.683 1577.94C-274.162 1543.54 -278.208 1507.37 -276.307 1472C-272.287 1397.2 -246.475 1333.87 -218.776 1272.74C-191.661 1212.91 -163.059 1154.56 -150.927 1087.37C-145.13 1055.93 -143.327 1023.43 -144.13 990.099C-145.082 948.579 -150.122 905.529 -154.138 861.8C-158.169 817.844 -160.498 773.086 -159.116 734.28" stroke="#021F41" stroke-width="0.53" stroke-miterlimit="10"/>
<path opacity="0.22" d="M749.535 2802.13C636.768 2783.59 505.893 2763.49 378.821 2696.7C306.171 2658.52 233.353 2602.49 173.495 2537.24C125.085 2484.5 84.7743 2423.64 58.8379 2355.98C48.9424 2330.33 41.1953 2303.69 39.5596 2277.11C35.6624 2214.33 64.6417 2160.71 96.0426 2117.53C105.275 2104.85 114.878 2092.69 124.808 2081.08C145.878 2056.55 168.502 2034.48 192.855 2013.84C202.294 2005.87 212.643 1996.42 222.018 1985.87C238.987 1966.72 252.091 1943.39 246.344 1915.16C239.973 1883.74 213.707 1867.45 187.691 1858.13C178.244 1854.76 168.852 1852.23 160.338 1850.5C134.445 1845.3 109.915 1841.08 85.4208 1836.94C60.6098 1832.86 35.9457 1828.69 11.2138 1824.41C-51.4295 1813.56 -119.19 1801.07 -173.865 1747.6C-207.414 1714.84 -232.36 1666.84 -245.904 1613.5C-254.639 1578.92 -258.624 1542.52 -256.403 1506.91C-251.658 1431.53 -223.898 1367.87 -194.002 1306.25C-164.767 1245.95 -133.784 1187.11 -119.988 1119.23C-113.42 1087.43 -110.998 1054.61 -111.334 1020.95C-111.716 979.045 -116.396 935.666 -120.446 891.665C-124.542 847.422 -127.418 802.472 -126.967 762.98" stroke="#021F41" stroke-width="0.53" stroke-miterlimit="10"/>
<path opacity="0.2" d="M803.021 2824.96C683.499 2809.32 547.486 2792.31 416.112 2727.4C341.265 2690.41 266.625 2635.21 205.682 2569.72C156.582 2516.96 116.019 2455.73 90.4878 2387.28C80.7554 2361.32 73.2608 2334.35 72.0922 2307.45C69.3027 2243.87 100.482 2189.59 134.224 2146.03C144.136 2133.22 154.436 2120.99 165.107 2109.28C187.661 2084.56 211.863 2062.34 237.747 2041.75C247.781 2033.77 258.775 2024.37 268.668 2013.82C286.644 1994.64 300.471 1971.18 294.772 1942.74C288.431 1911.08 261.432 1895.03 234.396 1886.21C224.579 1883.02 214.79 1880.72 205.863 1879.2C178.744 1874.62 152.889 1870.92 127.039 1867.28C100.872 1863.7 74.8521 1860.04 48.751 1856.3C-17.3756 1846.79 -88.6506 1835.64 -145.976 1782.49C-181.116 1749.92 -207.217 1701.77 -221.161 1648.15C-230.198 1613.4 -234.109 1576.73 -231.523 1540.87C-226.035 1464.96 -196.301 1400.91 -164.221 1338.84C-132.846 1278.1 -99.5009 1218.74 -84.0237 1150.19C-76.6529 1118.07 -73.6432 1084.9 -73.5117 1050.93C-73.3116 1008.59 -77.6317 964.886 -81.7593 920.63C-85.9202 876.102 -89.3566 830.99 -89.8375 790.813" stroke="#021F41" stroke-width="0.52" stroke-miterlimit="10"/>
<path opacity="0.17" d="M861.666 2846.85C735.345 2834.12 594.239 2820.19 458.562 2757.17C381.506 2721.39 305.025 2666.98 243.029 2601.27C193.195 2548.49 152.423 2486.88 127.297 2417.64C117.746 2391.43 110.473 2364.1 109.784 2336.84C108.084 2272.44 141.527 2217.51 177.597 2173.6C188.174 2160.7 199.198 2148.33 210.567 2136.54C234.636 2111.64 260.371 2089.29 287.816 2068.77C298.432 2060.8 310.084 2051.43 320.527 2040.88C339.479 2021.67 354.06 1998.08 348.378 1969.43C342.066 1937.52 314.322 1921.75 286.266 1913.42C276.078 1910.41 265.907 1908.32 256.552 1907.02C228.252 1903.07 201.028 1899.89 173.841 1896.81C146.318 1893.73 118.897 1890.58 91.4265 1887.38C21.8299 1879.19 -52.9861 1869.43 -112.98 1816.57C-149.724 1784.21 -176.981 1735.91 -191.357 1682C-200.663 1647.1 -204.545 1610.19 -201.612 1574.03C-195.381 1497.58 -163.686 1433.16 -129.427 1370.57C-95.9442 1309.38 -60.1739 1249.53 -43.0336 1180.27C-34.8916 1147.81 -31.2626 1114.3 -30.6457 1080.05C-29.876 1037.33 -33.8232 993.265 -37.9973 948.768C-42.205 903.998 -46.2068 858.65 -47.6323 817.817" stroke="#021F41" stroke-width="0.52" stroke-miterlimit="10"/>
<path opacity="0.15" d="M925.731 2867.79C792.655 2857.96 646.379 2847.11 506.4 2785.98C427.149 2751.39 348.812 2697.79 285.732 2631.84C235.209 2579.04 194.197 2517.03 169.463 2447.03C160.075 2420.52 153.054 2392.85 152.802 2365.26C152.191 2300.02 187.852 2244.47 226.294 2200.18C237.582 2187.18 249.272 2174.72 261.383 2162.83C286.935 2137.75 314.249 2115.24 343.211 2094.8C354.44 2086.87 366.705 2077.53 377.68 2066.95C397.651 2047.68 412.943 2023.98 407.308 1995.13C401.026 1962.97 372.55 1947.45 343.474 1939.62C332.916 1936.78 322.317 1934.93 312.592 1933.81C283.099 1930.49 254.55 1927.83 225.975 1925.24C197.096 1922.66 168.306 1920.05 139.48 1917.35C66.3998 1910.51 -11.931 1902.09 -74.5748 1849.56C-112.924 1817.41 -141.354 1768.91 -156.112 1714.77C-165.674 1679.69 -169.527 1642.53 -166.243 1606.15C-159.256 1529.12 -125.757 1464.29 -89.1879 1401.29C-53.6782 1339.59 -15.4329 1279.29 3.3887 1209.37C12.2888 1176.6 16.5502 1142.74 17.6343 1108.16C19.005 1065.07 15.3861 1020.66 11.1471 975.874C6.8746 930.818 2.31227 885.309 -0.0628662 843.746" stroke="#021F41" stroke-width="0.51" stroke-miterlimit="10"/>
<path opacity="0.12" d="M995.374 2887.68C855.499 2880.76 704.111 2872.94 559.849 2813.75C478.401 2780.34 398.21 2727.55 334.077 2661.39C282.852 2608.58 241.599 2546.17 217.271 2475.38C208.033 2448.6 201.295 2420.62 201.492 2392.66C202.002 2326.59 239.882 2270.42 280.634 2225.73C292.6 2212.61 305.001 2200.04 317.809 2188.08C344.877 2162.81 373.723 2140.18 404.247 2119.8C416.058 2111.89 428.98 2102.57 440.519 2091.96C461.465 2072.66 477.513 2048.83 471.925 2019.78C465.703 1987.39 436.434 1972.09 406.368 1964.77C395.44 1962.11 384.458 1960.46 374.337 1959.58C343.649 1956.91 313.745 1954.76 283.845 1952.68C253.61 1950.61 223.42 1948.52 193.224 1946.35C116.692 1940.87 34.8024 1933.8 -30.5099 1881.55C-70.4501 1849.59 -100.035 1800.94 -115.238 1746.54C-125.07 1711.3 -128.894 1673.9 -125.231 1637.23C-117.501 1559.67 -82.0101 1494.49 -43.2623 1430.97C-5.61305 1368.83 35.0077 1307.98 55.5107 1237.4C65.182 1204.28 70.0626 1170.08 71.6139 1135.19C73.5673 1091.67 70.3397 1046.95 66.0226 1001.91C61.6852 956.568 56.5756 910.866 53.2559 868.648" stroke="#021F41" stroke-width="0.5" stroke-miterlimit="10"/>
<path opacity="0.07" d="M1152.33 2924C998.93 2922.9 837.192 2921.08 684.412 2865.82C598.509 2834.76 514.8 2783.48 448.401 2717C395.855 2664.08 354.02 2600.95 330.52 2528.62C321.596 2501.27 315.363 2472.61 316.507 2443.98C319.214 2376.28 361.557 2318.81 407.023 2273.36C420.379 2260.01 434.187 2247.25 448.403 2235.11C478.483 2209.44 510.409 2186.51 544.031 2166.32C557.049 2158.44 571.229 2149.2 583.851 2138.56C606.778 2119.21 624.291 2095.15 618.781 2065.65C612.617 2032.77 581.897 2017.93 549.777 2011.63C538.154 2009.31 526.304 2008.14 515.398 2007.64C482.323 2006.26 449.706 2005.11 417.082 2004.07C384.121 2003.03 351.219 2001.95 318.254 2000.84C234.768 1998.02 145.875 1993.56 75.2364 1942.03C32.127 1910.4 0.217954 1861.48 -15.8122 1806.58C-26.1703 1771.02 -29.9216 1733.09 -25.561 1695.9C-16.3636 1617.22 23.0813 1551.33 66.1921 1486.83C108.133 1423.8 153.497 1361.94 177.313 1289.98C188.558 1256.19 194.646 1221.32 197.132 1185.78C200.237 1141.45 197.729 1096.07 193.282 1050.46C188.802 1004.58 182.567 958.477 177.402 914.932" stroke="#021F41" stroke-width="0.49" stroke-miterlimit="10"/>
<path opacity="0.05" d="M1240.07 2940.28C1079.89 2942.06 912.992 2943.29 755.928 2889.97C667.81 2860.04 582.252 2809.66 514.813 2742.92C461.565 2690.01 419.502 2626.45 396.364 2553.35C387.634 2525.71 381.64 2496.74 383.246 2467.71C387.043 2399.18 431.636 2341.1 479.411 2295.25C493.433 2281.81 507.952 2268.94 522.909 2256.7C554.504 2230.86 587.996 2207.8 623.116 2187.65C636.716 2179.79 651.573 2170.61 664.695 2159.93C688.659 2140.57 706.896 2116.37 701.402 2086.65C695.268 2053.52 663.772 2038.95 630.676 2033.13C618.683 2030.99 606.449 2030.03 595.116 2029.75C560.816 2029 526.874 2028.37 492.925 2027.85C458.609 2027.31 424.306 2026.75 390.002 2026.19C303.034 2024.71 210.569 2021.64 137.306 1970.38C92.5788 1939 59.5276 1889.89 43.0789 1834.67C32.4512 1798.96 28.7293 1760.78 33.4547 1723.34C43.4081 1644.09 84.8141 1577.84 130.077 1512.87C174.158 1449.41 221.884 1387.02 247.395 1314.37C259.411 1280.24 266.118 1245.04 269.058 1209.21C272.764 1164.51 270.598 1118.75 266.105 1072.9C261.559 1026.73 254.776 980.437 248.649 936.193" stroke="#021F41" stroke-width="0.49" stroke-miterlimit="10"/>
<path opacity="0.02" d="M1334.31 2955.14C1167.36 2959.86 995.276 2964.04 833.977 2912.71C743.601 2883.95 656.206 2834.42 587.758 2767.44C533.764 2714.55 491.505 2650.57 468.772 2576.68C460.192 2548.77 454.464 2519.44 456.538 2490.09C461.424 2420.72 508.248 2361.98 558.383 2315.8C573.084 2302.23 588.313 2289.26 603.968 2276.94C637.046 2250.91 672.116 2227.7 708.798 2207.61C723.011 2199.79 738.494 2190.61 752.166 2179.94C777.106 2160.54 796.098 2136.22 790.62 2106.28C784.515 2072.91 752.274 2058.62 718.157 2053.29C705.782 2051.36 693.178 2050.58 681.448 2050.54C645.968 2050.41 610.675 2050.35 575.352 2050.28C539.679 2050.25 504.007 2050.23 468.317 2050.15C377.865 2050.03 281.84 2048.3 205.972 1997.36C159.609 1966.17 125.416 1916.89 108.585 1861.43C97.7007 1825.54 94.0396 1787.13 99.067 1749.41C109.763 1669.62 153.162 1603.02 200.591 1537.56C246.856 1473.64 296.9 1410.75 324.091 1337.43C336.866 1303 344.192 1267.46 347.612 1231.28C351.888 1186.19 350.095 1140.07 345.523 1093.96C340.945 1047.52 333.57 1001.06 326.511 956.126" stroke="#021F41" stroke-width="0.48" stroke-miterlimit="10"/>
</g>
<defs>
<clipPath id="clip0_1289_6">
<rect width="1211.83" height="2555" fill="white" transform="matrix(-0.386637 0.922232 0.922232 0.386637 -40.8462 -118)"/>
</clipPath>
</defs>
</svg>
