<svg width="1920" height="2546" viewBox="0 0 1920 2546" fill="none" xmlns="http://www.w3.org/2000/svg">
<g clip-path="url(#clip0_1273_7)">
<path d="M1065.76 -720.218C1100.41 -726.812 1137.14 -707.301 1158.85 -679.171C1180.57 -651.042 1189.65 -615.813 1194.44 -581.341C1206.72 -492.816 1194.02 -403.792 1194.43 -314.83C1194.83 -225.868 1210.82 -131.221 1270.35 -61.8737C1363.28 46.35 1524.58 57.1801 1666.58 73.3734C1703.75 77.6004 1742.52 83.4502 1773.25 105.016C1812.59 132.62 1831.22 181.684 1832.93 228.237C1834.63 274.791 1821.81 320.058 1810.09 364.77C1772.4 508.778 1745.11 661.879 1786.26 807.524C1827.41 953.169 1982.3 1143.76 2242.4 1171.14" stroke="#021F41" stroke-width="0.71" stroke-miterlimit="10"/>
<path opacity="0.98" d="M2235.15 1176.98C2090.53 1158.77 1981.21 1086.11 1906.61 999.249C1853.36 937.262 1817.96 868.288 1801.43 806.66C1786.02 749.689 1780.25 691.59 1780.68 633.477C1780.88 610.927 1781.99 588.372 1783.77 565.997C1788.02 513.001 1796.24 461.052 1806.67 410.312C1809.73 395.442 1812.98 380.633 1816.3 365.975C1823.36 335.073 1830.96 303.986 1833.66 272.449C1834.78 259.554 1835.07 246.587 1834.15 233.442C1832.59 211.845 1827.28 189.503 1818.19 168.597C1808.22 145.698 1794.04 125.09 1774.52 110.358C1766.98 104.695 1758.95 100.041 1750.53 96.2258C1726.43 85.2329 1699.35 80.7448 1673.17 77.1208C1647.06 73.4964 1620.26 70.0582 1593.38 66.0871C1525.02 55.9896 1456.12 42.3599 1395.71 12.7834C1356.99 -6.07824 1321.72 -31.3706 1292.58 -65.9405C1273.56 -88.5217 1258.72 -113.561 1247.22 -139.986C1222.91 -195.849 1213.74 -257.832 1211.51 -317.181C1209.33 -377.08 1213.09 -436.93 1211.14 -497.21C1210.22 -524.905 1208.15 -552.64 1203.72 -580.44C1198.25 -614.833 1188.65 -650.09 1166.83 -678.463C1145 -706.836 1108.56 -726.851 1074.17 -721.385" stroke="#021F41" stroke-width="0.71" stroke-miterlimit="10"/>
<path opacity="0.95" d="M2231.21 1183.09C2093.64 1162.62 1990.85 1088.74 1920.07 1000.69C1869.69 938.038 1835.8 868.554 1819.91 806.1C1805.05 748.639 1799.18 690.114 1798.79 631.67C1798.67 608.999 1799.35 586.385 1800.58 564.043C1803.46 511.13 1809.6 460.166 1818 410.7C1820.46 396.184 1823.1 381.758 1825.85 367.499C1831.64 337.456 1837.96 307.289 1839.56 276.809C1840.25 264.343 1840.11 251.774 1838.75 238.982C1836.49 217.951 1830.47 196.055 1821.24 175.043C1811.08 151.977 1797.68 131.03 1779.2 116.049C1772.07 110.248 1764.44 105.53 1756.46 101.622C1733.64 90.3486 1707.98 85.3509 1683.12 81.2026C1658.37 77.069 1632.97 73.1061 1607.44 68.6258C1542.55 57.2778 1477.3 42.3357 1419.03 11.2712C1381.68 -8.51114 1347.15 -34.6908 1318.15 -69.6879C1299.23 -92.5591 1284.21 -117.765 1272.25 -144.188C1247.04 -200.001 1236.13 -260.939 1231.93 -319.213C1227.82 -378.051 1229.47 -436.703 1225.83 -496.411C1224.13 -523.813 1221.36 -551.438 1216.38 -579.129C1210.19 -613.457 1200.13 -648.712 1178.15 -677.313C1156.19 -705.944 1120.04 -726.463 1085.94 -722.142" stroke="#021F41" stroke-width="0.7" stroke-miterlimit="10"/>
<path opacity="0.93" d="M2230.38 1189.48C2099.8 1166.77 2003.57 1091.68 1936.63 1002.41C1889.16 939.103 1856.92 869.109 1841.48 805.815C1827.32 747.863 1821.18 688.898 1820 630.137C1819.57 607.392 1819.85 584.658 1820.5 562.334C1822 509.534 1826.05 459.555 1832.45 411.302C1834.31 397.139 1836.36 383.142 1838.5 369.267C1843.05 340.053 1848.02 310.853 1848.59 281.383C1848.8 269.33 1848.27 257.174 1846.46 244.766C1843.48 224.333 1836.76 202.851 1827.37 181.717C1817.03 158.486 1804.38 137.23 1786.95 121.97C1780.22 116.06 1773.02 111.249 1765.5 107.232C1743.99 95.6931 1719.71 90.1556 1696.2 85.4981C1672.81 80.8554 1648.75 76.3833 1624.64 71.424C1563.26 58.8099 1501.68 42.4487 1445.48 9.97265C1409.55 -10.7763 1375.69 -37.7666 1346.85 -73.252C1328.01 -96.4283 1312.8 -121.801 1300.44 -148.162C1274.28 -203.908 1261.66 -263.833 1255.5 -321.062C1249.47 -378.793 1248.98 -436.338 1243.63 -495.444C1241.12 -522.598 1237.67 -550.068 1232.12 -577.695C1225.24 -611.914 1214.66 -647.196 1192.59 -676.071C1170.49 -704.96 1134.66 -725.969 1100.78 -722.791" stroke="#021F41" stroke-width="0.69" stroke-miterlimit="10"/>
<path opacity="0.9" d="M2232.36 1196.23C2108.83 1171.27 2019.16 1095.05 1956 1004.5C1911.4 940.552 1880.76 870.017 1865.9 805.867C1852.35 747.424 1846.06 688.002 1844.04 628.941C1843.28 606.076 1843.19 583.267 1843.25 560.992C1843.37 508.274 1845.31 459.266 1849.7 412.302C1851 398.507 1852.45 384.895 1853.98 371.403C1857.24 343.033 1860.94 314.768 1860.42 286.355C1860.2 274.731 1859.24 262.973 1856.96 250.902C1853.24 231.051 1845.85 209.999 1836.3 188.714C1825.78 165.316 1813.92 143.767 1797.54 128.227C1791.24 122.224 1784.46 117.319 1777.39 113.178C1757.17 101.329 1734.27 95.2973 1712.13 90.1762C1690.09 85.0243 1667.44 80.0276 1644.68 74.559C1586.81 60.6789 1528.82 42.9752 1474.78 9.05668C1440.22 -12.6129 1407.08 -40.4599 1378.39 -76.4031C1359.66 -99.8694 1344.27 -125.408 1331.43 -151.737C1304.36 -207.403 1289.88 -266.268 1281.88 -322.467C1273.84 -379.107 1271.34 -435.515 1264.29 -494.019C1260.97 -520.925 1256.83 -548.239 1250.72 -575.803C1243.12 -609.957 1232.05 -645.252 1209.86 -674.34C1187.61 -703.457 1152.09 -725.031 1118.49 -722.936" stroke="#021F41" stroke-width="0.69" stroke-miterlimit="10"/>
<path opacity="0.88" d="M2236.93 1203.43C2120.4 1176.22 2037.35 1098.87 1977.99 1007C1936.27 942.43 1907.19 871.369 1892.9 806.363C1879.93 747.446 1873.49 687.568 1870.68 628.16C1869.64 605.189 1869.1 582.276 1868.57 560.049C1867.35 507.429 1867.16 459.421 1869.53 413.701C1870.23 400.29 1871.08 387.031 1872.05 373.984C1874.06 346.443 1876.46 319.128 1874.86 291.741C1874.22 280.515 1872.79 269.171 1870.08 257.498C1865.61 238.23 1857.59 217.623 1847.84 196.201C1837.13 172.636 1826.03 150.81 1810.71 134.96C1804.8 128.848 1798.45 123.85 1791.82 119.585C1772.86 107.41 1751.36 100.93 1730.6 95.269C1709.94 89.6229 1688.64 84.117 1667.26 78.1543C1612.88 62.9931 1558.54 43.9769 1506.62 8.6009C1473.48 -14.0048 1441.05 -42.6778 1412.5 -79.1245C1393.87 -102.881 1378.26 -128.602 1365 -154.913C1336.98 -210.514 1320.77 -268.334 1310.83 -323.518C1300.84 -379.067 1296.26 -434.338 1287.47 -492.254C1283.35 -518.913 1278.52 -546.072 1271.85 -573.572C1263.56 -607.646 1252.01 -642.955 1229.68 -672.3C1207.32 -701.661 1172.09 -723.739 1138.74 -722.773" stroke="#021F41" stroke-width="0.68" stroke-miterlimit="10"/>
<path opacity="0.85" d="M2243.92 1211.14C2134.42 1181.7 2057.91 1103.25 2002.37 1010.04C1963.53 944.876 1936.01 873.259 1922.3 807.397C1909.91 748.004 1903.34 687.685 1899.71 627.946C1898.35 604.855 1897.41 581.898 1896.3 559.689C1893.7 507.182 1891.39 460.144 1891.76 415.638C1891.86 402.58 1892.13 389.719 1892.5 377.056C1893.25 350.374 1894.39 323.995 1891.67 297.649C1890.58 286.852 1888.73 275.906 1885.57 264.616C1880.39 245.945 1871.66 225.753 1861.74 204.211C1850.84 180.509 1840.51 158.344 1826.24 142.215C1820.76 136.01 1814.81 130.903 1808.63 126.56C1790.95 114.104 1770.85 107.099 1751.42 100.96C1732.12 94.8047 1712.2 88.8046 1692.2 82.3022C1641.33 65.875 1590.61 45.5314 1540.83 8.66732C1509.05 -14.859 1477.35 -44.3888 1448.92 -81.3083C1430.37 -105.37 1414.58 -131.257 1400.9 -157.505C1371.97 -213.026 1354 -269.817 1342.13 -323.941C1330.19 -378.399 1323.51 -432.502 1313.02 -489.892C1308.08 -516.273 1302.58 -543.306 1295.38 -570.728C1286.4 -604.723 1274.33 -640.059 1251.85 -669.633C1229.35 -699.252 1194.41 -721.834 1161.31 -721.997" stroke="#021F41" stroke-width="0.68" stroke-miterlimit="10"/>
<path opacity="0.83" d="M2253.06 1219.41C2150.57 1187.71 2080.65 1108.22 2028.9 1013.65C1992.95 947.936 1966.99 875.718 1953.86 808.969C1942.08 749.117 1935.32 688.326 1930.9 628.271C1929.25 605.074 1927.87 582.013 1926.2 559.867C1922.22 507.443 1917.84 461.39 1916.16 418.158C1915.68 405.453 1915.34 392.976 1915.11 380.743C1914.61 354.92 1914.44 329.491 1910.63 304.126C1909.07 293.742 1906.79 283.194 1903.22 272.272C1897.29 254.184 1887.9 234.422 1877.83 212.727C1866.74 188.859 1857.2 166.401 1843.96 149.978C1838.87 143.664 1833.37 138.479 1827.64 134.012C1811.25 121.245 1792.54 113.746 1774.46 107.098C1756.53 100.403 1737.96 93.8932 1719.36 86.9423C1671.99 69.2796 1624.9 47.578 1577.25 9.25641C1546.87 -15.1755 1515.87 -45.577 1487.6 -82.9849C1469.15 -107.336 1453.16 -133.36 1439.03 -159.606C1409.17 -215.091 1389.45 -270.808 1375.66 -323.902C1361.8 -377.3 1353.11 -430.265 1340.83 -487.022C1335.15 -513.156 1328.9 -540.033 1321.13 -567.391C1311.44 -601.322 1298.91 -636.656 1276.29 -666.488C1253.65 -696.365 1219 -719.451 1186.2 -720.759" stroke="#021F41" stroke-width="0.67" stroke-miterlimit="10"/>
<path opacity="0.8" d="M2264.09 1228.32C2168.63 1194.39 2105.26 1113.87 2057.32 1017.88C2024.22 951.642 1999.85 878.807 1987.3 811.203C1976.1 750.875 1969.23 689.612 1963.97 629.256C1961.99 605.97 1960.24 582.804 1957.97 560.707C1952.61 508.396 1946.14 463.328 1942.45 421.339C1941.35 409.018 1940.44 396.94 1939.62 385.06C1937.87 360.066 1936.39 335.588 1931.49 311.279C1929.49 301.325 1926.79 291.175 1922.76 280.635C1916.09 263.13 1906.04 243.797 1895.8 221.982C1884.52 197.947 1875.74 175.18 1863.55 158.478C1858.85 152.056 1853.78 146.777 1848.49 142.186C1833.39 129.139 1816.04 121.177 1799.38 113.973C1782.77 106.83 1765.62 99.7652 1748.41 92.2896C1704.55 73.3609 1661.12 50.3469 1615.55 10.5071C1586.57 -14.8304 1556.27 -46.1342 1528.14 -83.9694C1509.78 -108.656 1493.6 -134.816 1479.04 -161.045C1448.26 -216.45 1426.78 -271.137 1411.03 -323.186C1395.22 -375.493 1384.49 -427.306 1370.44 -483.491C1363.96 -509.377 1357.02 -536.099 1348.68 -563.393C1338.3 -597.214 1325.26 -632.606 1302.53 -662.681C1279.79 -692.802 1245.42 -716.392 1212.88 -718.828" stroke="#021F41" stroke-width="0.67" stroke-miterlimit="10"/>
<path opacity="0.78" d="M2276.84 1237.97C2188.39 1201.76 2131.62 1120.28 2087.49 1022.83C2057.27 956.072 2034.46 882.604 2022.49 814.144C2011.86 753.341 2004.84 691.622 1998.78 630.95C1996.51 607.558 1994.35 584.303 1991.49 562.255C1984.79 510.042 1976.16 465.959 1970.49 425.198C1968.83 413.246 1967.28 401.536 1965.87 390.086C1962.86 365.951 1960.12 342.408 1954.11 319.11C1951.67 309.584 1948.52 299.817 1944.08 289.645C1936.65 272.677 1925.92 253.85 1915.53 231.883C1904.08 207.682 1896.04 184.637 1884.91 167.625C1880.64 161.109 1875.98 155.692 1871.15 151.022C1857.34 137.665 1841.37 129.208 1826.05 121.525C1810.79 113.873 1795.04 106.284 1779.16 98.3602C1738.79 78.1504 1698.99 53.8546 1655.56 12.5267C1627.94 -13.7314 1598.38 -45.8919 1570.4 -84.1848C1552.14 -109.162 1535.74 -135.504 1520.77 -161.669C1489.05 -217.009 1465.84 -270.652 1448.18 -321.67C1430.42 -372.886 1417.6 -423.562 1401.85 -479.145C1394.59 -504.768 1386.93 -531.35 1378.04 -558.58C1366.97 -592.321 1353.41 -627.742 1330.56 -658.03C1307.68 -688.409 1273.6 -712.503 1241.34 -716.053" stroke="#021F41" stroke-width="0.66" stroke-miterlimit="10"/>
<path opacity="0.76" d="M2291.03 1248.32C2209.58 1209.87 2159.36 1127.45 2119.07 1028.52C2091.68 961.256 2070.45 887.157 2059.09 817.825C2049.04 756.548 2041.9 694.387 2035.02 633.384C2032.42 609.872 2029.84 586.557 2026.42 564.542C2018.35 512.412 2007.64 469.314 1999.94 429.828C1997.69 418.228 1995.56 406.918 1993.54 395.851C1989.25 372.529 1985.23 349.984 1978.15 327.681C1975.27 318.583 1971.69 309.215 1966.77 299.411C1958.6 283.025 1947.2 264.628 1936.66 242.51C1925.02 218.141 1917.77 194.803 1907.69 177.512C1903.82 170.888 1899.59 165.377 1895.21 160.629C1882.66 146.945 1868.11 138.01 1854.14 129.818C1840.24 121.656 1825.88 113.573 1811.39 105.125C1774.53 83.6489 1738.35 58.0255 1697.05 15.2401C1670.83 -11.9235 1641.99 -44.9408 1614.15 -83.7371C1596 -109.004 1579.41 -135.513 1563.97 -161.646C1531.34 -216.905 1506.36 -269.519 1486.74 -319.492C1467.07 -369.602 1452.15 -419.185 1434.65 -474.151C1426.59 -499.526 1418.27 -525.937 1408.77 -553.089C1396.98 -586.765 1382.96 -622.154 1359.98 -652.73C1336.95 -683.337 1303.2 -707.951 1271.16 -712.644" stroke="#021F41" stroke-width="0.65" stroke-miterlimit="10"/>
<path opacity="0.73" d="M2306.43 1259.61C2232.03 1218.91 2188.32 1135.6 2151.87 1035.14C2127.32 967.426 2107.68 892.633 2096.92 822.415C2087.44 760.662 2080.15 698.046 2072.47 636.726C2069.58 613.108 2066.59 589.705 2062.6 567.707C2053.14 515.69 2040.32 473.562 2030.62 435.335C2027.76 424.119 2025.04 413.162 2022.45 402.494C2016.9 380.032 2011.6 358.452 2003.42 337.16C2000.1 328.491 1996.06 319.506 1990.73 310.069C1981.81 294.266 1969.75 276.299 1959.04 254.059C1947.2 229.555 1940.71 205.908 1931.7 188.308C1928.25 181.589 1924.42 175.97 1920.48 171.098C1909.19 157.089 1896.04 147.705 1883.46 139.019C1870.91 130.348 1857.93 121.771 1844.81 112.782C1811.47 90.0405 1778.93 63.1353 1739.75 18.8163C1714.93 -9.25297 1686.78 -43.1418 1659.09 -82.396C1641.01 -107.968 1624.24 -134.643 1608.38 -160.759C1574.83 -215.938 1548.12 -267.507 1526.55 -316.466C1504.94 -365.484 1487.91 -413.946 1468.73 -468.294C1459.86 -493.422 1450.87 -519.677 1440.83 -546.75C1428.36 -580.347 1413.81 -615.763 1390.72 -646.553C1367.57 -677.403 1334.08 -702.536 1302.34 -708.374" stroke="#021F41" stroke-width="0.65" stroke-miterlimit="10"/>
<path opacity="0.71" d="M2322.68 1272.12C2255.27 1229.17 2218.08 1144.98 2185.5 1042.98C2163.76 974.825 2145.73 899.309 2135.57 828.25C2126.68 766.022 2119.27 702.934 2110.77 641.283C2107.56 617.545 2104.19 594.067 2099.6 572.118C2088.77 520.184 2073.87 479.04 2062.15 442.057C2058.7 431.195 2055.4 420.636 2052.18 410.382C2045.37 388.779 2038.78 368.12 2029.53 347.854C2025.77 339.614 2021.28 331.011 2015.52 321.973C2005.84 306.707 1993.16 289.23 1982.24 266.854C1970.22 242.183 1964.51 218.274 1956.53 200.348C1953.48 193.522 1950.07 187.809 1946.61 182.828C1936.62 168.508 1924.85 158.63 1913.62 149.434C1902.42 140.254 1890.81 131.137 1879.09 121.701C1849.22 97.7082 1820.34 69.4601 1783.29 23.6835C1759.87 -5.29127 1732.42 -40.052 1704.86 -79.8096C1686.89 -105.672 1669.94 -132.514 1653.63 -158.581C1619.15 -213.725 1590.7 -264.22 1567.17 -312.133C1543.64 -360.046 1524.5 -407.385 1503.6 -461.176C1493.93 -486.057 1484.24 -512.156 1473.64 -539.165C1460.44 -572.668 1445.42 -608.128 1422.22 -639.16C1398.94 -670.269 1365.76 -695.891 1334.28 -702.857" stroke="#021F41" stroke-width="0.64" stroke-miterlimit="10"/>
<path opacity="0.68" d="M2339.52 1285.95C2279.16 1240.74 2248.42 1155.72 2219.76 1052.11C2200.77 983.533 2184.42 907.323 2174.85 835.377C2166.51 772.705 2158.96 709.13 2149.64 647.147C2146.13 623.335 2142.31 599.752 2137.17 577.836C2124.99 526.03 2107.97 485.857 2094.21 450.102C2090.16 439.593 2086.26 429.418 2082.46 419.563C2074.41 398.789 2066.52 379.126 2056.16 359.871C2051.96 352.059 2047.01 343.84 2040.85 335.169C2030.4 320.47 2017.07 303.439 2005.99 280.942C1993.79 256.104 1988.87 231.901 1981.91 213.681C1979.29 206.761 1976.29 200.91 1973.27 195.85C1964.55 181.204 1954.2 170.847 1944.32 161.143C1934.46 151.484 1924.25 141.842 1913.93 131.881C1887.57 106.622 1862.3 77.0774 1827.4 29.7821C1805.36 -0.0676525 1778.64 -35.7612 1751.22 -75.946C1733.35 -102.098 1716.19 -129.122 1699.43 -155.142C1664.04 -210.205 1633.86 -259.656 1608.38 -306.554C1582.95 -353.391 1561.68 -399.578 1539.05 -452.782C1528.6 -477.4 1518.21 -503.358 1507.04 -530.304C1493.15 -563.727 1477.65 -599.2 1454.29 -630.46C1430.87 -661.827 1397.98 -687.954 1366.75 -696.048" stroke="#021F41" stroke-width="0.64" stroke-miterlimit="10"/>
<path opacity="0.66" d="M2356.72 1301.14C2303.36 1253.69 2279.08 1167.82 2254.35 1062.63C2238.15 993.64 2223.42 916.676 2214.47 843.859C2206.69 780.696 2199.04 716.695 2188.9 654.381C2185.06 630.448 2180.86 606.791 2175.1 584.909C2161.55 533.185 2142.4 494.013 2126.65 459.516C2122.03 449.406 2117.51 439.616 2113.11 430.144C2103.79 410.229 2094.65 391.501 2083.15 373.242C2078.51 365.859 2073.09 358.054 2066.52 349.751C2055.29 335.619 2041.33 319.032 2030.1 296.383C2017.71 271.379 2013.54 246.899 2007.64 228.369C2005.41 221.341 2002.84 215.395 2000.25 210.243C1992.79 195.27 1983.84 184.465 1975.32 174.251C1966.81 164.083 1958 153.917 1949.02 143.477C1926.17 116.952 1904.54 86.1255 1871.72 37.312C1851.07 6.55667 1825.08 -29.9936 1797.78 -70.6513C1779.99 -97.1084 1762.64 -124.299 1745.46 -150.302C1709.12 -205.3 1677.26 -253.721 1649.82 -299.574C1622.44 -345.32 1599.09 -390.37 1574.76 -442.971C1563.5 -467.342 1552.42 -493.145 1540.69 -520.027C1526.12 -553.371 1510.09 -588.871 1486.6 -620.39C1463.04 -652.015 1430.44 -678.646 1399.49 -687.854" stroke="#021F41" stroke-width="0.63" stroke-miterlimit="10"/>
<path opacity="0.63" d="M2374.07 1317.8C2327.73 1268.12 2309.86 1181.44 2289.09 1074.62C2275.63 1005.24 2262.56 927.536 2254.23 853.848C2247.02 790.21 2239.22 725.753 2228.28 663.123C2224.16 639.085 2219.52 615.323 2213.19 593.504C2198.27 541.864 2177.04 503.676 2159.26 470.423C2154.05 460.666 2148.93 451.259 2143.95 442.187C2133.39 423.1 2122.98 405.384 2110.34 388.121C2105.27 381.167 2099.39 373.744 2092.41 365.809C2080.41 352.245 2065.81 336.102 2054.44 313.348C2041.87 288.176 2038.47 263.434 2033.61 244.579C2031.79 237.488 2029.63 231.404 2027.52 226.142C2021.35 210.859 2013.78 199.559 2006.64 188.851C1999.49 178.174 1992.06 167.514 1984.48 156.549C1965.15 128.758 1947.1 96.6652 1916.44 46.3332C1897.15 14.6877 1871.9 -22.7497 1844.76 -63.8958C1827.07 -90.6429 1809.52 -117.97 1791.89 -143.97C1754.64 -198.888 1721.01 -246.28 1691.61 -291.088C1662.32 -335.728 1636.84 -379.624 1610.79 -431.669C1598.73 -455.792 1586.96 -481.44 1574.67 -508.258C1559.38 -541.537 1542.87 -577.051 1519.26 -608.813C1495.6 -640.681 1463.3 -667.847 1432.59 -678.153" stroke="#021F41" stroke-width="0.63" stroke-miterlimit="10"/>
<path opacity="0.61" d="M2391.3 1336C2351.98 1284.05 2340.44 1196.62 2323.72 1088.16C2312.95 1018.39 2301.61 939.951 2293.88 865.377C2287.23 801.294 2279.34 736.334 2267.56 673.404C2263.11 649.245 2258.09 625.409 2251.17 603.639C2234.86 552.112 2211.52 514.894 2191.75 482.9C2185.94 473.496 2180.25 464.488 2174.64 455.83C2162.82 437.603 2151.16 420.822 2137.41 404.569C2131.89 398.044 2125.57 391.005 2118.15 383.467C2105.38 370.47 2090.13 354.804 2078.6 331.898C2065.83 306.59 2063.2 281.539 2059.43 262.39C2058.01 255.19 2056.29 248.981 2054.63 243.641C2049.74 228.002 2043.57 216.254 2037.77 205.067C2031.99 193.85 2025.9 182.711 2019.71 171.252C2003.85 142.181 1989.47 108.821 1960.94 56.9551C1943.05 24.4041 1918.49 -13.9051 1891.5 -55.509C1873.91 -82.5917 1856.16 -110.055 1838.11 -135.992C1799.92 -190.844 1764.59 -237.178 1733.24 -280.97C1702.05 -324.535 1674.45 -367.278 1646.69 -418.721C1633.81 -442.566 1621.37 -468.088 1608.55 -494.828C1592.57 -528.028 1575.56 -563.524 1551.81 -595.544C1527.99 -627.64 1496 -655.34 1465.56 -666.806" stroke="#021F41" stroke-width="0.62" stroke-miterlimit="10"/>
<path opacity="0.59" d="M2408.22 1355.84C2375.92 1301.66 2370.72 1213.4 2358.03 1103.32C2349.96 1033.18 2340.34 953.953 2333.21 878.537C2327.1 813.965 2319.09 748.563 2306.52 685.317C2301.78 661.053 2296.33 637.158 2288.83 615.406C2271.18 563.976 2245.73 527.728 2223.92 497.009C2217.51 487.989 2211.22 479.334 2205.04 471.075C2191.93 453.691 2179.03 437.861 2164.16 422.65C2158.21 416.553 2151.42 409.897 2143.57 402.712C2130.01 390.313 2114.14 375.061 2102.46 352.003C2089.5 326.528 2087.6 301.23 2084.91 281.741C2083.89 274.432 2082.62 268.146 2081.38 262.667C2077.76 246.67 2072.99 234.474 2068.55 222.778C2064.12 211.052 2059.43 199.388 2054.62 187.435C2042.26 157.128 2031.49 122.471 2005.11 69.087C1988.6 35.661 1964.76 -3.55054 1937.9 -45.6579C1920.41 -73.0305 1902.45 -100.675 1883.98 -126.596C1844.89 -181.398 1807.81 -226.656 1774.47 -269.418C1741.37 -311.877 1711.62 -353.514 1682.16 -404.354C1668.47 -427.951 1655.35 -453.318 1641.96 -479.994C1625.28 -513.084 1607.77 -548.638 1583.91 -580.902C1559.99 -613.242 1528.28 -641.446 1498.12 -654.025" stroke="#021F41" stroke-width="0.61" stroke-miterlimit="10"/>
<path opacity="0.56" d="M2424.54 1377.35C2399.26 1320.9 2400.35 1231.91 2391.76 1120.13C2386.34 1049.63 2378.47 969.633 2371.97 893.315C2366.43 828.298 2358.3 762.425 2344.9 698.847C2339.83 674.494 2333.99 650.479 2325.93 628.79C2306.89 577.474 2279.35 542.21 2255.54 512.704C2248.54 504.038 2241.67 495.782 2234.87 487.937C2220.51 471.382 2206.37 456.533 2190.36 442.317C2184 436.664 2176.71 430.407 2168.45 423.589C2154.12 411.758 2137.6 396.95 2125.76 373.771C2112.59 348.115 2111.46 322.554 2109.84 302.755C2109.24 295.353 2108.38 288.927 2107.59 283.37C2105.29 267.033 2101.86 254.357 2098.8 242.167C2095.72 229.932 2092.42 217.774 2088.96 205.312C2080.12 173.739 2072.95 137.785 2048.73 82.8822C2033.57 48.5661 2010.5 8.4825 1983.76 -34.0977C1966.38 -61.7604 1948.23 -89.5717 1929.29 -115.46C1889.25 -170.196 1850.49 -214.426 1815.19 -256.143C1780.19 -297.526 1748.31 -338.009 1717.15 -388.248C1702.65 -411.597 1688.84 -436.808 1674.88 -463.39C1657.48 -496.416 1639.48 -531.983 1615.51 -564.46C1591.44 -597.058 1560.02 -625.766 1530.11 -639.474" stroke="#021F41" stroke-width="0.61" stroke-miterlimit="10"/>
<path opacity="0.54" d="M2440.05 1400.63C2421.8 1341.95 2429.14 1252.18 2424.7 1138.76C2421.9 1067.88 2415.81 987.13 2409.93 909.941C2404.93 844.434 2396.72 778.135 2382.51 714.195C2377.15 689.736 2370.89 665.631 2362.25 643.961C2341.84 592.727 2312.17 558.464 2286.35 530.202C2278.78 521.903 2271.27 514.016 2263.89 506.57C2248.27 490.875 2232.91 476.976 2215.75 463.787C2208.94 458.563 2201.2 452.688 2192.52 446.269C2177.39 435.035 2160.28 420.657 2148.24 397.342C2134.89 371.519 2134.53 345.695 2133.95 325.571C2133.73 318.091 2133.33 311.511 2132.98 305.906C2131.99 289.227 2129.93 276.088 2128.24 263.435C2126.51 250.69 2124.61 238.008 2122.53 225.052C2117.21 192.212 2113.63 154.992 2091.56 98.5706C2077.78 63.3795 2055.44 22.363 2028.86 -20.675C2011.55 -48.6427 1993.22 -76.6209 1973.86 -102.446C1932.91 -157.102 1892.41 -200.287 1855.16 -240.959C1818.24 -281.236 1784.25 -320.597 1751.37 -370.279C1736.09 -393.365 1721.57 -418.436 1707.04 -444.954C1688.96 -477.901 1670.47 -513.481 1646.36 -546.216C1622.16 -579.072 1591.05 -608.269 1561.37 -623.121" stroke="#021F41" stroke-width="0.6" stroke-miterlimit="10"/>
<path opacity="0.51" d="M2454.53 1425.72C2443.29 1364.76 2456.84 1274.26 2456.57 1159.18C2456.39 1087.92 2452.09 1006.38 2446.82 928.354C2442.38 862.403 2434.04 795.586 2419.03 731.36C2413.37 706.796 2406.67 682.587 2397.47 660.98C2375.69 609.829 2343.94 576.551 2316.08 549.563C2307.9 541.648 2299.82 534.16 2291.83 527.098C2274.97 512.231 2258.33 499.298 2240.03 487.105C2232.8 482.279 2224.54 476.833 2215.49 470.766C2199.59 460.1 2181.85 446.167 2169.65 422.7C2156.11 396.71 2156.49 370.64 2156.98 350.175C2157.16 342.587 2157.19 335.913 2157.28 330.184C2157.57 313.148 2156.91 299.561 2156.57 286.398C2156.21 273.114 2155.65 259.953 2154.99 246.518C2153.14 212.397 2153.19 173.926 2133.25 115.971C2120.85 79.9045 2099.22 37.9857 2072.79 -5.51007C2055.58 -33.7678 2037.07 -61.9126 2017.25 -87.7354C1975.36 -142.326 1933.17 -184.483 1893.93 -224.124C1855.11 -263.325 1818.96 -301.549 1784.38 -350.628C1768.3 -373.467 1753.09 -398.382 1738.03 -424.822C1719.23 -457.704 1700.25 -493.297 1676.02 -526.245C1651.67 -559.359 1620.86 -589.061 1591.46 -605.026" stroke="#021F41" stroke-width="0.6" stroke-miterlimit="10"/>
<path opacity="0.49" d="M2467.77 1452.7C2463.56 1389.52 2483.27 1298.22 2487.2 1181.49C2489.59 1109.87 2487.12 1027.56 2482.48 948.632C2478.58 882.221 2470.16 814.947 2454.32 750.391C2448.35 725.706 2441.25 701.453 2431.47 679.864C2408.33 628.841 2374.47 596.533 2344.6 570.758C2335.83 563.197 2327.14 556.093 2318.58 549.429C2300.45 535.422 2282.58 523.439 2263.13 512.272C2255.46 507.875 2246.73 502.842 2237.27 497.143C2220.58 487.075 2202.22 473.556 2189.85 449.968C2176.12 423.842 2177.25 397.463 2178.81 376.689C2179.4 369.038 2179.89 362.21 2180.41 356.387C2182 339.01 2182.74 324.974 2183.71 311.318C2184.7 297.525 2185.54 283.839 2186.23 269.894C2187.89 234.538 2191.53 194.77 2173.77 135.266C2162.72 98.3093 2141.84 55.5033 2115.55 11.5497C2098.45 -16.998 2079.72 -45.3246 2059.47 -71.0996C2016.66 -125.61 1972.76 -166.752 1931.53 -205.318C1890.82 -243.444 1852.54 -280.515 1816.25 -328.992C1799.37 -351.583 1783.47 -376.343 1767.85 -402.719C1748.35 -435.491 1728.9 -471.127 1704.53 -504.333C1680.08 -537.691 1649.55 -567.897 1620.42 -585.021" stroke="#021F41" stroke-width="0.59" stroke-miterlimit="10"/>
<path opacity="0.46" d="M2479.53 1481.58C2482.32 1416.15 2508.17 1324.05 2516.37 1205.67C2521.36 1133.66 2520.66 1050.59 2516.68 970.806C2513.32 903.905 2504.78 836.19 2488.14 771.317C2481.88 746.527 2474.37 722.185 2463.96 700.629C2439.46 649.689 2403.48 618.351 2371.61 593.866C2362.25 586.658 2352.98 579.952 2343.79 573.703C2324.41 560.555 2305.29 549.477 2284.71 539.351C2276.65 535.367 2267.42 530.733 2257.55 525.402C2240.08 515.931 2221.09 502.827 2208.55 479.118C2194.63 452.825 2196.49 426.153 2199.16 405.13C2200.14 397.37 2201.07 390.418 2202.04 384.517C2204.97 366.814 2207.05 352.299 2209.37 338.134C2211.73 323.831 2213.94 309.651 2216.02 295.213C2221.19 258.591 2228.43 217.556 2212.82 156.533C2203.12 118.687 2183.01 75.0085 2156.86 30.5515C2139.84 1.6987 2120.92 -26.7947 2100.27 -52.5373C2056.54 -107.013 2010.92 -147.065 1967.72 -184.631C1925.1 -221.681 1884.68 -257.569 1846.67 -305.489C1828.97 -327.803 1812.4 -352.437 1796.22 -378.75C1776.03 -411.442 1756.07 -447.107 1731.55 -480.571C1706.95 -514.157 1676.72 -544.897 1647.85 -563.15" stroke="#021F41" stroke-width="0.58" stroke-miterlimit="10"/>
<path opacity="0.44" d="M2489.54 1512.47C2499.38 1444.79 2531.3 1351.93 2543.78 1231.9C2551.3 1159.51 2552.46 1075.69 2549.1 995.03C2546.27 927.669 2537.65 859.498 2520.19 794.294C2513.61 769.383 2505.69 744.952 2494.72 723.46C2468.83 672.633 2430.77 642.28 2396.87 619.038C2386.9 612.214 2377.04 605.861 2367.28 600.011C2346.65 587.691 2326.3 577.564 2304.56 568.495C2296.05 564.94 2286.36 560.72 2276.05 555.741C2257.78 546.868 2238.17 534.178 2225.47 510.348C2211.36 483.889 2213.95 456.969 2217.7 435.606C2219.08 427.737 2220.43 420.692 2221.83 414.697C2226.07 396.653 2229.52 381.675 2233.22 367.015C2236.96 352.218 2240.53 337.529 2243.98 322.551C2252.63 284.648 2263.46 242.347 2250.05 179.79C2241.74 141.068 2222.34 96.4879 2196.31 51.558C2179.39 22.4152 2160.29 -6.24491 2139.17 -31.9548C2094.52 -86.3495 2047.18 -125.389 2002.01 -161.878C1957.49 -197.853 1914.91 -232.603 1875.23 -279.906C1856.72 -301.972 1839.47 -326.451 1822.72 -352.699C1801.82 -385.328 1781.35 -420.975 1756.73 -454.682C1731.99 -488.526 1702.05 -519.771 1673.46 -539.138" stroke="#021F41" stroke-width="0.58" stroke-miterlimit="10"/>
<path opacity="0.41" d="M2497.64 1545.47C2514.47 1475.54 2552.48 1381.85 2569.27 1260.23C2579.32 1187.41 2582.36 1102.88 2579.63 1021.32C2577.33 953.5 2568.62 884.826 2550.35 819.336C2543.46 794.351 2535.14 769.799 2523.58 748.356C2496.31 697.612 2456.13 668.259 2420.26 646.245C2409.73 639.789 2399.26 633.821 2388.87 628.385C2366.95 616.909 2345.37 607.733 2322.52 599.675C2313.59 596.517 2303.41 592.741 2292.71 588.099C2273.64 579.856 2253.4 567.58 2240.56 543.568C2226.28 516.941 2229.6 489.744 2234.42 468.071C2236.18 460.125 2238.02 452.94 2239.85 446.852C2245.39 428.466 2250.21 413.024 2255.26 397.886C2260.36 382.549 2265.32 367.366 2270.13 351.924C2282.3 312.755 2296.72 269.188 2285.46 205.112C2278.5 165.5 2259.86 120.002 2233.98 74.6145C2217.15 45.1362 2197.84 16.3704 2176.29 -9.32226C2130.69 -63.6516 2081.64 -101.677 2034.51 -137.121C1988.09 -172.021 1943.39 -205.618 1901.97 -252.334C1882.65 -274.152 1864.72 -298.475 1847.4 -324.66C1825.82 -357.209 1804.86 -392.869 1780.1 -426.835C1755.25 -460.922 1725.6 -492.671 1697.26 -513.166" stroke="#021F41" stroke-width="0.57" stroke-miterlimit="10"/>
<path opacity="0.39" d="M2503.54 1580.6C2527.42 1508.42 2571.45 1413.9 2592.57 1290.7C2605.13 1217.49 2610.02 1132.2 2607.94 1049.78C2606.22 981.489 2597.38 912.374 2578.3 846.522C2571.09 821.417 2562.35 796.806 2550.24 775.396C2521.63 724.749 2479.33 696.367 2441.4 675.612C2430.27 669.509 2419.18 663.955 2408.23 658.887C2385.07 648.241 2362.23 639.999 2338.24 633.013C2328.87 630.284 2318.22 626.922 2307.11 622.648C2287.25 615.002 2266.42 603.156 2253.38 579.007C2238.91 552.214 2242.95 524.724 2248.86 502.756C2251.02 494.701 2253.29 487.423 2255.59 481.226C2262.47 462.514 2268.66 446.609 2275.03 430.946C2281.49 415.1 2287.8 399.408 2294.03 383.487C2309.71 343.052 2327.68 298.203 2318.62 232.624C2313.01 192.122 2295.11 145.737 2269.38 99.8911C2252.65 70.1228 2233.13 41.1752 2211.15 15.4998C2164.64 -38.7489 2113.87 -75.7607 2064.76 -110.129C2016.45 -143.953 1969.57 -176.382 1926.48 -222.556C1906.35 -244.127 1887.77 -268.279 1869.89 -294.401C1847.59 -326.885 1826.15 -362.558 1801.26 -396.737C1776.27 -431.083 1746.91 -463.335 1718.87 -484.975" stroke="#021F41" stroke-width="0.57" stroke-miterlimit="10"/>
<path opacity="0.37" d="M2507.02 1617.96C2537.89 1543.54 2587.94 1448.15 2613.45 1323.35C2628.51 1249.71 2635.3 1163.73 2633.84 1080.44C2632.65 1011.68 2623.7 942.097 2603.83 875.929C2596.33 850.718 2587.18 826.018 2574.47 804.656C2544.48 754.123 2500.1 726.725 2460.14 707.214C2448.41 701.495 2436.76 696.309 2425.19 691.656C2400.76 681.869 2376.68 674.532 2351.57 668.587C2341.77 666.257 2330.64 663.339 2319.13 659.401C2298.48 652.353 2277.03 640.921 2263.82 616.652C2249.15 589.723 2253.95 561.925 2260.93 539.647C2263.48 531.483 2266.22 524.096 2268.91 517.791C2277.13 498.783 2284.67 482.368 2292.4 466.242C2300.25 449.902 2307.92 433.67 2315.51 417.24C2334.69 375.569 2356.24 329.408 2349.34 262.28C2345.09 220.888 2327.96 173.631 2302.35 127.312C2285.73 97.254 2266.02 68.1397 2243.61 42.5121C2196.15 -11.6713 2143.69 -47.6542 2092.62 -80.9773C2042.41 -113.726 1993.4 -145.002 1948.61 -190.574C1927.66 -211.866 1908.41 -235.894 1889.95 -261.921C1866.95 -294.296 1845 -330.027 1820.01 -364.449C1794.88 -399.053 1765.85 -431.825 1738.02 -454.578" stroke="#021F41" stroke-width="0.56" stroke-miterlimit="10"/>
<path opacity="0.34" d="M2507.47 1657.44C2545.36 1580.74 2601.37 1484.5 2631.29 1358.16C2648.81 1284.09 2657.51 1197.39 2656.7 1113.24C2656.02 1044.01 2647.02 973.982 2626.32 907.483C2618.51 882.152 2608.97 857.377 2595.68 836.033C2564.32 785.583 2517.81 759.186 2475.88 740.903C2463.56 735.537 2451.33 730.75 2439.18 726.496C2413.49 717.567 2388.19 711.151 2361.9 706.217C2351.7 704.331 2340.06 701.811 2328.14 698.241C2306.68 691.822 2284.63 680.774 2271.27 656.352C2256.41 629.257 2261.92 601.196 2270 578.593C2272.95 570.321 2276.11 562.84 2279.27 556.457C2288.82 537.122 2297.7 520.229 2306.79 503.594C2315.99 486.745 2325.05 470.018 2334.01 453.094C2356.68 410.143 2381.82 362.715 2377.11 294.083C2374.21 251.801 2357.82 203.657 2332.37 156.85C2315.83 126.487 2295.94 97.2056 2273.08 71.6258C2224.73 17.4924 2170.54 -17.4462 2117.46 -49.7086C2065.35 -81.3813 2014.2 -111.474 1967.69 -156.49C1945.96 -177.519 1925.99 -201.406 1906.97 -227.37C1883.29 -259.665 1860.85 -295.409 1835.71 -330.059C1810.44 -364.921 1781.69 -398.198 1754.15 -422.064" stroke="#021F41" stroke-width="0.56" stroke-miterlimit="10"/>
<path opacity="0.32" d="M2502.36 1697.93C2547.28 1619.01 2609.27 1521.84 2643.58 1393.98C2663.59 1319.47 2674.17 1232.06 2674.03 1147.03C2673.87 1077.34 2664.78 1006.81 2643.27 940.023C2635.17 914.587 2625.17 889.738 2611.34 868.427C2578.59 818.09 2530.01 792.647 2486.04 775.639C2473.13 770.627 2460.29 766.223 2447.55 762.398C2420.62 754.299 2394.06 748.818 2366.63 744.956C2356 743.467 2343.88 741.392 2331.56 738.159C2309.32 732.337 2286.64 721.704 2273.11 697.161C2258.08 669.899 2264.32 641.561 2273.51 618.663C2276.86 610.328 2280.48 602.693 2284.06 596.216C2294.92 576.54 2305.17 559.183 2315.61 542.039C2326.17 524.68 2336.61 507.46 2346.95 489.996C2373.13 445.778 2401.82 397.069 2399.3 326.934C2397.75 283.762 2382.11 234.73 2356.78 187.45C2340.34 156.797 2320.27 127.349 2296.95 101.772C2247.65 47.7036 2191.78 13.7938 2136.74 -17.4232C2082.73 -48.0203 2029.42 -76.9754 1981.24 -121.374C1958.71 -142.156 1938.05 -165.887 1918.46 -191.787C1894.06 -224.018 1871.14 -259.775 1845.89 -294.668C1820.5 -329.743 1792.05 -363.555 1764.76 -388.55" stroke="#021F41" stroke-width="0.55" stroke-miterlimit="10"/>
<path opacity="0.29" d="M2493.27 1740.48C2545.21 1659.28 2613.14 1561.22 2651.89 1431.87C2674.35 1356.86 2686.87 1268.81 2687.35 1182.91C2687.74 1112.73 2678.56 1041.77 2656.23 974.654C2647.78 949.128 2637.42 924.175 2623 902.912C2588.91 852.673 2538.17 828.216 2492.21 812.466C2478.72 807.852 2465.29 803.802 2451.94 800.361C2423.75 793.121 2395.91 788.529 2367.39 785.724C2356.34 784.634 2343.73 783.002 2331.01 780.137C2307.99 774.959 2284.67 764.694 2271 740.046C2255.78 712.617 2262.75 683.985 2273.02 660.793C2276.78 652.35 2280.82 644.621 2284.85 638.02C2297.03 618.048 2308.66 600.197 2320.41 582.559C2332.35 564.707 2344.13 546.931 2355.87 529.019C2385.56 483.535 2417.82 433.545 2417.5 361.875C2417.3 317.813 2402.41 267.864 2377.24 220.126C2360.9 189.183 2340.61 159.553 2316.89 134.039C2266.68 80.0512 2209.1 47.1245 2152.04 16.9989C2096.14 -12.5533 2040.68 -40.2944 1990.77 -84.136C1967.42 -104.64 1946.1 -128.246 1925.95 -154.083C1900.86 -186.234 1877.4 -221.989 1852.01 -257.14C1826.49 -292.474 1798.33 -326.789 1771.29 -352.913" stroke="#021F41" stroke-width="0.54" stroke-miterlimit="10"/>
<path opacity="0.27" d="M2480.3 1785.29C2539.26 1701.87 2613.1 1602.85 2656.3 1472.01C2681.23 1396.55 2695.66 1307.8 2696.76 1221.03C2697.68 1150.39 2688.38 1078.96 2665.23 1011.51C2656.5 985.882 2645.69 960.824 2630.67 939.611C2595.21 889.454 2542.39 865.981 2494.41 851.475C2480.33 847.215 2466.29 843.549 2452.35 840.537C2422.88 834.11 2393.82 830.469 2364.16 828.736C2352.66 828.074 2339.58 826.856 2326.44 824.313C2302.63 819.733 2278.69 809.882 2264.87 785.083C2249.47 757.487 2257.14 728.563 2268.52 705.075C2272.67 696.524 2277.18 688.686 2281.63 681.991C2295.15 661.694 2308.14 643.41 2321.26 625.232C2334.58 606.885 2347.72 588.6 2360.82 570.148C2394.03 523.399 2429.85 472.127 2431.71 398.954C2432.87 354.002 2418.75 303.18 2393.7 254.97C2377.44 223.721 2356.96 193.925 2332.8 168.458C2281.64 114.536 2222.35 82.623 2163.36 53.5578C2105.56 25.0812 2047.97 -1.50716 1996.36 -44.7465C1972.2 -65.0027 1950.19 -88.4535 1929.51 -114.211C1903.72 -146.253 1879.79 -182.051 1854.27 -217.46C1828.6 -253.052 1800.76 -287.857 1773.99 -315.14" stroke="#021F41" stroke-width="0.54" stroke-miterlimit="10"/>
<path opacity="0.24" d="M2463.34 1832.47C2529.3 1746.8 2609.07 1646.79 2656.76 1514.48C2684.13 1438.52 2700.47 1349.13 2702.24 1261.47C2703.69 1190.37 2694.32 1118.49 2670.34 1050.71C2661.29 1024.96 2650.1 999.823 2634.49 978.658C2597.64 928.614 2542.74 906.127 2492.71 892.85C2478.03 888.943 2463.4 885.706 2448.87 883.047C2418.14 877.479 2387.83 874.743 2357.05 874.051C2345.13 873.788 2331.6 873.029 2318.01 870.839C2293.43 866.903 2268.83 857.451 2254.86 832.499C2239.26 804.767 2247.7 775.535 2260.14 751.738C2264.68 743.077 2269.62 735.146 2274.53 728.374C2289.34 707.765 2303.71 688.987 2318.18 670.33C2332.85 651.475 2347.39 632.665 2361.86 613.749C2398.53 565.749 2437.95 513.18 2442.02 438.473C2444.53 392.631 2431.16 340.922 2406.27 292.223C2390.11 260.685 2369.46 230.722 2344.83 205.257C2292.76 151.416 2231.75 120.516 2170.75 92.5121C2111.06 65.111 2051.2 39.798 1998 -2.97671C1973 -22.9242 1950.33 -46.2804 1929.09 -71.9745C1902.59 -103.951 1878.17 -139.763 1852.53 -175.416C1826.76 -211.251 1799.18 -246.575 1772.69 -274.971" stroke="#021F41" stroke-width="0.53" stroke-miterlimit="10"/>
<path opacity="0.22" d="M2442.23 1882.19C2515.24 1794.27 2600.88 1693.29 2653.04 1559.54C2682.87 1483.08 2701.13 1393.04 2703.55 1304.52C2705.53 1232.96 2696.07 1160.58 2671.29 1092.48C2661.95 1066.62 2650.34 1041.43 2634.14 1020.28C2595.93 970.324 2538.89 948.837 2486.87 936.818C2471.59 933.295 2456.37 930.411 2441.26 928.152C2409.26 923.443 2377.71 921.612 2345.79 921.992C2333.44 922.157 2319.43 921.812 2305.43 919.989C2280.06 916.651 2254.88 907.629 2240.7 882.541C2224.92 854.642 2234.07 825.117 2247.61 801.025C2252.53 792.287 2257.96 784.216 2263.26 777.335C2279.4 756.431 2295.16 737.158 2310.94 717.977C2327 698.628 2342.89 679.309 2358.76 659.869C2398.95 610.602 2441.93 556.752 2448.16 480.527C2452.01 433.794 2439.38 381.198 2414.64 332.042C2398.56 300.198 2377.71 270.099 2352.69 244.666C2299.69 190.86 2236.99 160.989 2174.02 134.061C2112.41 107.69 2050.44 83.5751 1995.51 41.357C1969.71 21.6571 1946.36 -1.54355 1924.55 -27.174C1897.37 -59.0716 1872.46 -94.8956 1846.67 -130.776C1820.76 -166.87 1793.46 -202.698 1767.23 -232.223" stroke="#021F41" stroke-width="0.53" stroke-miterlimit="10"/>
<path opacity="0.2" d="M2416.81 1934.49C2496.81 1844.33 2588.37 1742.31 2645.02 1607.18C2677.28 1530.17 2697.46 1439.56 2700.54 1350.15C2703.02 1278.12 2693.51 1205.29 2667.91 1136.86C2658.25 1110.89 2646.22 1085.61 2629.47 1064.52C2589.9 1014.69 2530.76 994.142 2476.72 983.367C2460.85 980.197 2445.05 977.712 2429.31 975.867C2396.08 971.987 2363.24 971.076 2330.19 972.498C2317.38 973.046 2302.92 973.16 2288.53 971.674C2262.38 968.979 2236.56 960.326 2222.22 935.117C2206.25 907.052 2216.12 877.233 2230.75 852.847C2236.07 844 2241.96 835.851 2247.7 828.846C2265.18 807.615 2282.27 787.864 2299.41 768.174C2316.82 748.315 2334.06 728.487 2351.32 708.553C2395.02 658.021 2441.53 602.874 2449.97 525.16C2455.15 477.522 2443.3 424.054 2418.67 374.425C2402.71 342.26 2381.63 312.01 2356.17 286.625C2302.25 232.899 2237.81 204.028 2172.89 178.19C2109.38 152.894 2045.29 129.933 1988.66 88.3168C1962.03 68.895 1938.01 45.8195 1915.64 20.2526C1887.74 -11.5806 1862.35 -47.4175 1836.45 -83.5416C1810.4 -119.893 1783.42 -156.21 1757.44 -186.864" stroke="#021F41" stroke-width="0.52" stroke-miterlimit="10"/>
<path opacity="0.17" d="M2386.88 1989.47C2473.92 1897.05 2571.34 1794.02 2632.48 1657.48C2667.21 1579.95 2689.28 1488.72 2693.02 1398.46C2696.05 1325.93 2686.44 1252.68 2660.02 1183.92C2650.05 1157.87 2637.63 1132.47 2620.28 1111.43C2579.34 1061.68 2518.08 1042.14 2462.05 1032.62C2445.61 1029.82 2429.17 1027.7 2412.86 1026.26C2378.36 1023.23 2344.27 1023.23 2310.09 1025.72C2296.86 1026.67 2281.91 1027.23 2267.11 1026.11C2240.21 1024.03 2213.73 1015.77 2199.24 990.411C2183.08 962.179 2193.69 932.083 2209.42 907.402C2215.14 898.447 2221.45 890.205 2227.66 883.09C2246.44 861.549 2264.91 841.304 2283.42 821.15C2302.19 800.782 2320.83 780.429 2339.47 760.001C2386.65 708.187 2436.76 651.774 2447.4 572.526C2453.93 523.998 2442.85 469.658 2418.36 419.525C2402.51 387.071 2381.24 356.654 2355.32 331.271C2300.49 277.626 2234.33 249.768 2167.42 224.961C2102.03 200.71 2035.77 178.962 1977.43 137.903C1950 118.729 1925.29 95.8087 1902.37 70.3511C1873.78 38.5973 1847.87 2.7324 1821.85 -33.6044C1795.68 -70.169 1768.97 -107.036 1743.28 -138.803" stroke="#021F41" stroke-width="0.52" stroke-miterlimit="10"/>
<path opacity="0.15" d="M2352.24 2047.29C2446.28 1952.62 2549.62 1848.53 2615.24 1710.6C2652.41 1632.52 2676.42 1540.69 2680.82 1449.54C2684.35 1376.54 2674.66 1302.83 2647.45 1233.76C2637.16 1207.58 2624.33 1182.09 2606.43 1161.09C2564.11 1111.42 2500.77 1092.86 2442.7 1084.62C2425.66 1082.2 2408.66 1080.45 2391.72 1079.42C2355.98 1077.23 2320.6 1078.14 2285.33 1081.69C2271.65 1083.07 2256.27 1084.06 2241.04 1083.26C2213.33 1081.81 2186.25 1073.94 2171.59 1048.46C2155.25 1020.06 2166.58 989.667 2183.4 964.692C2189.51 955.628 2196.3 947.277 2202.91 940.054C2223 918.217 2242.82 897.493 2262.69 876.799C2282.81 855.922 2302.84 835.075 2322.84 814.137C2373.53 761.058 2427.16 703.348 2440.03 622.612C2447.91 573.194 2437.58 517.936 2413.23 467.376C2397.45 434.617 2376 404.033 2349.67 378.713C2293.9 325.133 2226.09 298.136 2157.18 274.542C2089.91 251.229 2021.5 230.772 1961.45 190.315C1933.25 171.403 1907.83 148.624 1884.34 123.23C1855.05 91.5861 1828.67 55.6777 1802.51 19.0825C1776.2 -17.7404 1749.81 -55.0963 1724.35 -88.0381" stroke="#021F41" stroke-width="0.51" stroke-miterlimit="10"/>
<path opacity="0.12" d="M2312.69 2107.96C2413.77 2011.04 2522.96 1905.88 2593.09 1766.61C2632.69 1687.99 2658.63 1595.55 2663.68 1503.54C2667.74 1430.08 2657.98 1355.92 2629.94 1286.51C2619.36 1260.23 2606.1 1234.68 2587.62 1213.7C2543.92 1164.15 2478.5 1146.57 2418.42 1139.54C2400.78 1137.48 2383.18 1136.11 2365.67 1135.48C2328.66 1134.15 2292.04 1135.96 2255.63 1140.59C2241.53 1142.36 2225.66 1143.79 2209.99 1143.35C2181.52 1142.51 2153.78 1135.04 2138.96 1109.43C2122.42 1080.9 2134.49 1050.15 2152.4 1024.91C2158.9 1015.74 2166.11 1007.3 2173.18 999.997C2194.6 977.863 2215.77 956.631 2236.99 935.458C2258.46 914.072 2279.88 892.7 2301.27 871.268C2355.46 816.954 2412.66 757.932 2427.73 675.661C2436.93 625.338 2427.38 569.208 2403.19 518.16C2387.52 485.111 2365.88 454.36 2339.08 429.073C2282.39 375.573 2212.86 349.621 2141.95 327.057C2072.79 304.82 2002.22 285.5 1940.47 245.645C1911.45 226.981 1885.35 204.358 1861.3 179.027C1831.3 147.448 1804.41 111.557 1778.14 74.7185C1751.69 37.6372 1725.59 -0.222818 1700.42 -34.2782" stroke="#021F41" stroke-width="0.5" stroke-miterlimit="10"/>
<path opacity="0.07" d="M2217.98 2238.29C2333.09 2136.89 2454.03 2029.48 2533.17 1887.59C2577.67 1807.82 2607.26 1714.22 2613.81 1620.49C2618.8 1546.08 2609 1470.98 2579.33 1400.96C2568.14 1374.46 2554.05 1348.73 2534.42 1327.86C2487.99 1278.51 2418.34 1262.88 2354.21 1258.37C2335.37 1257.04 2316.58 1256.46 2297.89 1256.61C2258.35 1256.95 2219.2 1260.56 2180.58 1267.36C2165.58 1269.94 2148.82 1272.26 2132.31 1272.51C2102.31 1272.92 2073.31 1266.23 2058.13 1240.34C2041.23 1211.48 2054.7 1180.13 2074.83 1154.32C2082.08 1144.94 2090.27 1136.3 2098.17 1128.76C2122.24 1106.04 2146.11 1083.79 2170.07 1061.61C2194.28 1039.22 2218.41 1016.83 2242.58 994.381C2303.77 937.519 2367.97 875.874 2387.53 790.657C2399.34 738.508 2391.37 680.649 2367.48 628.685C2351.99 595.04 2329.95 563.941 2302.28 538.719C2243.75 485.335 2170.77 461.44 2095.93 440.998C2022.93 420.897 1948.12 403.928 1882.96 365.202C1852.32 347.064 1824.86 324.721 1799.69 299.517C1768.28 268.082 1740.42 232.165 1713.88 194.81C1687.18 157.227 1661.67 118.328 1637.02 82.061" stroke="#021F41" stroke-width="0.49" stroke-miterlimit="10"/>
<path opacity="0.05" d="M2162.4 2308.1C2284.52 2204.44 2411.35 2095.95 2494.99 1952.71C2541.92 1872.35 2573.49 1778.21 2580.66 1683.6C2586.18 1608.73 2576.27 1533.16 2545.82 1462.8C2534.29 1436.2 2519.83 1410.4 2499.58 1389.53C2451.78 1340.27 2380.03 1325.65 2313.9 1322.35C2294.5 1321.39 2275.1 1321.19 2255.78 1321.76C2214.98 1322.96 2174.58 1327.51 2134.85 1335.31C2119.42 1338.3 2102.19 1341.1 2085.28 1341.64C2054.49 1342.73 2024.85 1336.41 2009.52 1310.37C1992.43 1281.34 2006.66 1249.68 2027.84 1223.59C2035.48 1214.11 2044.1 1205.37 2052.47 1197.72C2077.88 1174.67 2103.1 1151.94 2128.39 1129.29C2153.95 1106.39 2179.48 1083.48 2205.02 1060.56C2269.72 1002.43 2337.53 939.492 2359.25 852.756C2372.44 799.733 2365.21 740.986 2341.42 688.503C2326.04 654.569 2303.82 623.303 2275.71 598.129C2216.23 544.81 2141.53 521.929 2064.76 502.547C1989.87 483.522 1912.93 467.706 1846.04 429.567C1814.59 411.676 1786.44 389.489 1760.74 364.364C1728.63 333.039 1700.27 297.063 1673.6 259.495C1646.76 221.654 1621.54 182.251 1597.16 144.825" stroke="#021F41" stroke-width="0.49" stroke-miterlimit="10"/>
<path opacity="0.02" d="M2100.98 2381.12C2230.14 2275.22 2362.82 2165.56 2450.97 2021.06C2500.36 1940.09 2533.88 1845.39 2541.65 1749.94C2547.75 1674.6 2537.72 1598.59 2506.44 1527.89C2494.62 1501.19 2479.72 1475.28 2458.91 1454.48C2409.74 1405.3 2335.88 1391.65 2267.74 1389.64C2247.74 1389.03 2227.74 1389.22 2207.84 1390.18C2165.8 1392.21 2124.1 1397.68 2083.23 1406.56C2067.37 1409.97 2049.67 1413.19 2032.34 1414.1C2000.8 1415.8 1970.5 1409.88 1955.02 1383.69C1937.75 1354.48 1952.72 1322.56 1974.99 1296.17C1983.07 1286.59 1992.08 1277.74 2000.91 1270.02C2027.61 1246.66 2054.23 1223.48 2080.86 1200.27C2107.77 1176.86 2134.69 1153.45 2161.59 1130C2229.81 1070.61 2301.19 1006.35 2325.08 918.144C2339.64 864.2 2333.15 804.566 2309.5 751.656C2294.19 717.417 2271.78 686.015 2243.25 660.827C2182.86 607.589 2106.43 585.752 2027.7 567.416C1950.86 549.481 1871.84 534.802 1803.24 497.266C1771.02 479.638 1742.19 457.606 1715.89 432.53C1683.1 401.284 1654.22 365.281 1627.44 327.469C1600.45 289.4 1575.56 249.478 1551.43 210.923" stroke="#021F41" stroke-width="0.48" stroke-miterlimit="10"/>
</g>
<defs>
<clipPath id="clip0_1273_7">
<rect width="2473" height="2555" fill="white" transform="translate(1124.63 -841) rotate(26.2897)"/>
</clipPath>
</defs>
</svg>
